<svg width="24" height="24" viewBox="0 0 24 24" fill="none" xmlns="http://www.w3.org/2000/svg">
<g clip-path="url(#clip0_279_15387)">
<path d="M1 11.8508C1.17158 11.4802 1.46327 11.3498 1.86248 11.3739C2.23252 11.3962 2.60599 11.3739 2.97546 11.3796C3.37238 11.383 3.65892 11.6552 3.65835 12.0219C3.65778 12.3885 3.37238 12.6613 2.97546 12.6647C2.60485 12.6681 2.23195 12.6481 1.86248 12.6704C1.46212 12.6945 1.17101 12.5635 1 12.194V11.8508Z" fill="#fff"/>
<path d="M11.8073 23.0032C11.4367 22.8316 11.3069 22.5393 11.3309 22.1401C11.3526 21.7706 11.3309 21.3966 11.336 21.0271C11.3395 20.6308 11.6117 20.3442 11.9789 20.3442C12.3461 20.3442 12.6177 20.6302 12.6218 21.0271C12.6252 21.3983 12.6052 21.7706 12.6269 22.1401C12.6509 22.5405 12.5199 22.8316 12.1505 23.0032H11.8073Z" fill="#fff"/>
<path d="M11.9747 5.2002C15.7324 5.1962 18.7962 8.2549 18.8008 12.0142C18.8054 15.7735 15.7444 18.8385 11.9862 18.842C8.22801 18.8454 5.16359 15.785 5.16016 12.0279C5.15673 8.27091 8.21657 5.20592 11.9747 5.2002ZM12.6382 6.5391V17.5048C15.1547 17.252 17.5196 15.0426 17.5134 12.0108C17.5048 8.96867 15.1244 6.78503 12.6382 6.5391Z" fill="#fff"/>
<path d="M5.59742 6.36864C5.50419 6.31773 5.32918 6.26054 5.20564 6.1473C4.87964 5.84932 4.57194 5.53075 4.26481 5.21333C3.99543 4.9348 3.99143 4.54989 4.24422 4.29252C4.49702 4.03515 4.88765 4.03114 5.16446 4.29767C5.49352 4.61375 5.8159 4.93671 6.1316 5.26652C6.22544 5.3564 6.28802 5.47399 6.31015 5.60203C6.33228 5.73008 6.3128 5.86184 6.25457 5.97801C6.14419 6.22394 5.93886 6.33318 5.59742 6.36864Z" fill="#fff"/>
<path d="M19.1985 4.09229C19.5142 4.11802 19.7161 4.21868 19.8322 4.45318C19.9483 4.68767 19.9408 4.94046 19.763 5.13378C19.4198 5.50553 19.0635 5.86585 18.6912 6.20787C18.4435 6.43664 18.07 6.39889 17.8378 6.16669C17.7196 6.05449 17.6503 5.9003 17.6449 5.73742C17.6394 5.57455 17.6983 5.41607 17.8087 5.2962C18.1438 4.93646 18.495 4.58987 18.8542 4.25586C18.956 4.16092 19.1161 4.12946 19.1985 4.09229Z" fill="#fff"/>
<path d="M4.7692 19.9523C4.43805 19.9243 4.2333 19.8156 4.12178 19.5691C4.01025 19.3226 4.03541 19.083 4.215 18.8908C4.55073 18.5316 4.89789 18.1822 5.25763 17.847C5.37952 17.7399 5.53768 17.6833 5.69985 17.6888C5.86202 17.6944 6.01597 17.7615 6.13031 17.8767C6.24464 17.9918 6.31074 18.1462 6.31511 18.3084C6.31949 18.4706 6.26182 18.6284 6.15386 18.7495C5.82442 19.1047 5.48012 19.4473 5.12437 19.779C5.01742 19.8757 4.85271 19.9128 4.7692 19.9523Z" fill="#fff"/>
<path d="M18.3671 17.6787C18.4546 17.7245 18.6262 17.7754 18.7446 17.884C19.0751 18.1872 19.3886 18.5132 19.7008 18.8329C19.9685 19.1097 19.9696 19.4997 19.7163 19.7537C19.4629 20.0076 19.0717 20.0105 18.7955 19.7434C18.4721 19.4319 18.1545 19.1145 17.8426 18.7911C17.6419 18.5824 17.5864 18.3336 17.7099 18.0631C17.8215 17.8183 18.0251 17.7067 18.3671 17.6787Z" fill="#fff"/>
<path d="M12.6244 2.37648C12.6244 2.59782 12.6284 2.81859 12.6244 3.03935C12.6164 3.41855 12.3384 3.69994 11.9809 3.69937C11.6235 3.69879 11.3444 3.41683 11.3398 3.03764C11.3352 2.58867 11.3341 2.1397 11.3398 1.69073C11.3378 1.52093 11.4032 1.35726 11.5217 1.23559C11.6401 1.11391 11.802 1.04415 11.9718 1.04159C12.3298 1.03587 12.6141 1.31612 12.6238 1.69245C12.6289 1.92008 12.6244 2.14828 12.6244 2.37648Z" fill="#fff"/>
<path d="M21.6322 11.377C21.8535 11.377 22.0743 11.3736 22.295 11.377C22.6765 11.3833 22.959 11.6544 22.9625 12.0124C22.9635 12.0983 22.9472 12.1836 22.9147 12.2631C22.8821 12.3426 22.8339 12.4148 22.773 12.4753C22.712 12.5359 22.6395 12.5835 22.5598 12.6155C22.48 12.6475 22.3947 12.6632 22.3087 12.6616C21.86 12.6673 21.411 12.6673 20.9618 12.6616C20.5838 12.6564 20.303 12.3756 20.3047 12.0159C20.3064 11.6561 20.5907 11.3867 20.9693 11.377C21.19 11.377 21.4114 11.377 21.6322 11.377Z" fill="#fff"/>
</g>
<defs>
<clipPath id="clip0_279_15387">
<rect width="22" height="22.0034" fill="#fff" transform="translate(1 1)"/>
</clipPath>
</defs>
</svg>
