<svg width="18" height="18" viewBox="0 0 18 18" fill="none" xmlns="http://www.w3.org/2000/svg">
<path d="M16.2162 9.52709C16.1079 9.4376 15.9767 9.38032 15.8375 9.36175C15.6983 9.34319 15.5566 9.3641 15.4287 9.42209C14.6356 9.78501 13.7733 9.97179 12.9012 9.96959C11.2878 9.96764 9.74066 9.32792 8.59704 8.18992C7.45341 7.05191 6.80608 5.50792 6.79619 3.89459C6.79961 3.38897 6.86254 2.8855 6.98369 2.39459C7.00939 2.26375 6.99975 2.12841 6.95575 2.00253C6.91175 1.87665 6.83499 1.76478 6.73337 1.67844C6.63175 1.5921 6.50894 1.53441 6.37761 1.51133C6.24628 1.48824 6.11116 1.50058 5.98619 1.54709C4.81043 2.07577 3.78836 2.89466 3.016 3.92683C2.24365 4.959 1.74635 6.17056 1.57082 7.44771C1.3953 8.72485 1.54731 10.0257 2.01259 11.2279C2.47786 12.4302 3.24112 13.4944 4.23066 14.3207C5.2202 15.147 6.40354 15.7081 7.66952 15.9515C8.9355 16.1948 10.2426 16.1123 11.4679 15.7118C12.6932 15.3112 13.7967 14.6058 14.6745 13.6617C15.5523 12.7176 16.1757 11.5658 16.4862 10.3146C16.524 10.1713 16.5185 10.0201 16.4705 9.87994C16.4224 9.73979 16.3339 9.61701 16.2162 9.52709ZM9.09119 14.5446C7.8325 14.5357 6.60734 14.138 5.58343 13.4059C4.55952 12.6738 3.78693 11.6431 3.37145 10.4549C2.95596 9.26677 2.91789 7.97923 3.26244 6.76859C3.60699 5.55796 4.31733 4.48341 5.29619 3.69209V3.89459C5.29817 5.91095 6.10005 7.84416 7.52583 9.26995C8.95162 10.6957 10.8848 11.4976 12.9012 11.4996C13.4306 11.5015 13.9587 11.4462 14.4762 11.3346C13.9586 12.3137 13.1835 13.133 12.2346 13.7039C11.2856 14.2749 10.1987 14.576 9.09119 14.5746V14.5446Z" fill="#1D1D1F"/>
</svg>
