<svg width="73" height="31" viewBox="0 0 73 31" fill="none" xmlns="http://www.w3.org/2000/svg">
<path d="M59.4603 0.808594H1.61758L0.808594 3.23556V30.3367H13.3479L70.7861 29.5277L71.5951 10.921L69.1681 8.08949L61.8872 0.808594H59.4603Z" fill="#1D1D20" stroke="black" stroke-width="0.808989"/>
<path d="M36.0315 30.8245H0.583325C0.020796 30.8245 0.0222781 30.8245 0.0207978 30.262C0.0207978 27.5248 -0.00140949 24.7847 7.08525e-05 22.0491C7.08525e-05 14.8704 0.00698127 7.69224 0.0207978 0.514563C0.0207978 0.00236548 0.0207999 0.000886108 0.522635 0.000886108C20.9237 0.000886108 41.3243 0.000886108 61.7243 0.000886108C61.8699 -0.00520982 62.0152 0.0202028 62.1501 0.0753876C62.285 0.130572 62.4064 0.214228 62.5059 0.320639C65.5505 3.38001 68.602 6.43049 71.6604 9.4721C71.7719 9.57431 71.86 9.6995 71.9186 9.83904C71.9771 9.97857 72.0046 10.1291 71.9994 10.2804C71.9905 16.9537 71.9905 23.6266 71.9994 30.299C71.9994 30.8304 71.9994 30.8304 71.4502 30.8304L36.0315 30.8245ZM35.9842 29.2924H49.0112C56.0181 29.2924 63.0251 29.2948 70.032 29.2998C70.374 29.2998 70.4598 29.205 70.4598 28.8675C70.4499 22.7981 70.4499 16.7287 70.4598 10.6593C70.4642 10.5573 70.4462 10.4555 70.4071 10.3611C70.3679 10.2668 70.3086 10.1821 70.2333 10.1131C67.4532 7.34485 64.6786 4.57069 61.9094 1.79062C61.828 1.70266 61.7282 1.63372 61.6172 1.58869C61.5062 1.54366 61.3866 1.52365 61.2669 1.53008C41.5182 1.536 21.7685 1.536 2.01777 1.53008C1.48633 1.53008 1.54703 1.47382 1.54703 2.00675C1.54703 10.9135 1.54703 19.8202 1.54703 28.7269C1.54703 29.356 1.46561 29.285 2.09031 29.285L35.9842 29.2924Z" fill="#D6D6D6"/>
<path d="M38.3651 14.3249C38.9854 14.5425 39.5731 14.6758 40.1267 14.9171C42.257 15.8304 43.5078 17.7297 43.5419 20.042C43.57 21.8954 43.0785 23.5534 41.804 24.9271C40.6656 26.1454 39.2445 26.9123 37.6353 27.3194C36.2527 27.6702 34.8434 27.7635 33.4208 27.7531C29.9795 27.7383 26.5387 27.7383 23.0984 27.7531C22.7328 27.7531 22.6543 27.6435 22.6543 27.2942C22.6652 19.4632 22.6652 11.6322 22.6543 3.80119C22.6543 3.44443 22.752 3.34229 23.1088 3.34377C26.3033 3.35709 29.4979 3.34377 32.6925 3.35561C33.8755 3.33809 35.0585 3.39247 36.2349 3.51845C37.5465 3.68276 38.7885 4.0795 39.8766 4.84187C41.5049 5.97877 42.0379 7.62491 41.8943 9.52419C41.7314 11.6722 40.5694 13.1466 38.6864 14.1044C38.6212 14.1379 38.5576 14.1749 38.4954 14.2154C38.4496 14.2489 38.406 14.2855 38.3651 14.3249ZM28.9487 20.2463C28.9487 21.0975 28.9679 21.9487 28.9398 22.7984C28.928 23.1862 29.0642 23.278 29.4283 23.2691C30.6244 23.2425 31.8206 23.2341 33.0167 23.244C33.6588 23.2492 34.2973 23.1492 34.9071 22.9479C35.8426 22.643 36.5976 22.1293 36.8522 21.1093C37.0313 20.4143 37.0149 19.6832 36.8049 18.9969C36.7268 18.7307 36.5943 18.4836 36.416 18.2711C36.2377 18.0586 36.0172 17.8854 35.7686 17.7623C35.2741 17.5081 34.7344 17.3536 34.1802 17.3078C32.5518 17.1598 30.9235 17.2101 29.2951 17.1938C28.999 17.1938 28.9413 17.3271 28.9443 17.5787C28.9531 18.4595 28.9502 19.3477 28.9487 20.2359V20.2463ZM28.9487 10.4154C28.9487 11.1555 28.9487 11.8957 28.9487 12.6359C28.9487 12.8535 28.9931 12.9897 29.2522 12.9837C30.6037 12.9482 31.9642 13.0711 33.3039 12.8224C34.7931 12.5456 35.3201 11.8705 35.4267 10.6685C35.5214 9.58932 35.215 8.47166 33.8146 8.07937C33.4616 7.9701 33.0958 7.90739 32.7265 7.89285C31.5807 7.87805 30.4364 7.87509 29.2921 7.85732C29.036 7.85732 28.9428 7.94762 28.9472 8.20224C28.962 8.93057 28.9487 9.67074 28.9487 10.4094V10.4154Z" fill="#D6D6D6"/>
<path d="M44.8291 15.5388V3.84411C44.8291 3.34671 44.8291 3.34375 45.3058 3.34375C48.7599 3.34375 52.2141 3.34375 55.6682 3.34375C56.9517 3.34375 58.2381 3.38224 59.4934 3.6561C61.5155 4.1002 63.212 5.06539 64.3075 6.89953C64.7134 7.60665 64.9505 8.39799 65.0003 9.21182C65.1483 10.8905 64.9692 12.5145 64.1032 13.9948C63.3082 15.3508 62.1062 16.2804 60.7517 17.031C60.6911 17.0727 60.6261 17.1074 60.5578 17.1346C60.2484 17.2293 60.2898 17.3774 60.4556 17.5891C61.3754 18.7625 62.2912 19.9413 63.2031 21.1256C64.8374 23.2247 66.4712 25.3238 68.1045 27.423C68.1667 27.5044 68.3044 27.5784 68.2318 27.6968C68.18 27.7797 68.0498 27.7442 67.9521 27.7442C65.6087 27.7442 63.2653 27.7442 60.9219 27.7442C60.8312 27.7513 60.7403 27.7343 60.6583 27.6947C60.5764 27.6552 60.5065 27.5946 60.4556 27.5192C58.3831 24.7164 56.3107 21.9161 54.2382 19.1183C54.1809 19.0257 54.0996 18.9505 54.0028 18.9007C53.9061 18.8509 53.7976 18.8284 53.689 18.8355C52.9621 18.8474 52.2338 18.8548 51.5055 18.8355C51.1887 18.8266 51.1147 18.9421 51.1162 19.2396C51.125 21.9294 51.1162 24.6177 51.128 27.3075C51.128 27.6391 51.0466 27.7516 50.6987 27.7516C48.8858 27.7348 47.0729 27.7348 45.2599 27.7516C44.9165 27.7516 44.8247 27.6509 44.8262 27.3075C44.8341 23.3836 44.8351 19.4607 44.8291 15.5388ZM51.1176 11.0978C51.1176 12.0837 51.1176 13.0696 51.1176 14.0584C51.1176 14.2539 51.1384 14.3945 51.3915 14.3886C52.7682 14.3545 54.1464 14.4389 55.5231 14.2583C57.0271 14.0599 58.5904 12.9438 58.5119 10.8091C58.4512 9.13632 57.5882 8.31177 56.0575 8.02755C54.5269 7.74332 52.9355 7.92836 51.3737 7.87951C51.1028 7.87063 51.1176 8.03791 51.1176 8.21851C51.1186 9.1758 51.1186 10.1351 51.1176 11.0963V11.0978Z" fill="#D6D6D6"/>
<path d="M3.09341 15.531C3.09341 11.6214 3.09341 7.71036 3.08452 3.80079C3.08452 3.41442 3.19554 3.33448 3.56119 3.33596C9.12431 3.3478 14.6874 3.3478 20.2505 3.33596C20.7287 3.33596 20.7287 3.33596 20.7287 3.82447C20.7287 5.08276 20.7169 6.34105 20.7361 7.59934C20.7361 7.96646 20.6473 8.08489 20.2639 8.08341C16.8339 8.0686 13.4055 8.07453 9.9755 8.07453C9.35968 8.07453 9.35969 8.07453 9.35969 8.70959C9.35969 9.70931 9.35969 10.7085 9.35969 11.7073C9.35969 12.2624 9.35969 12.2624 9.93258 12.2624H19.4068C19.9278 12.2624 19.9293 12.2624 19.9293 12.7672C19.9293 14.0507 19.9189 15.3341 19.9293 16.6161C19.9293 16.9492 19.8212 17.0306 19.503 17.0291C16.2714 17.0187 13.0398 17.0291 9.80823 17.0158C9.45739 17.0158 9.34192 17.1046 9.34488 17.4599C9.36264 19.1504 9.35228 20.8395 9.35376 22.53C9.35376 23.0008 9.35376 23.0082 9.83043 23.0082H20.2283C20.7213 23.0082 20.7228 23.0082 20.7228 23.4908C20.7228 24.7742 20.7139 26.0562 20.7302 27.3397C20.7302 27.6535 20.6295 27.729 20.329 27.729C14.7165 27.7201 9.10408 27.7201 3.49162 27.729C3.16742 27.729 3.08008 27.6476 3.08008 27.3189C3.09784 23.4005 3.09341 19.4657 3.09341 15.531Z" fill="#D6D6D6"/>
</svg>
