<svg width="22" height="6" viewBox="0 0 22 6" fill="none" xmlns="http://www.w3.org/2000/svg">
<path d="M5.26316 3.36842C5.26316 1.92105 4.07895 0.736842 2.63158 0.736842C1.18421 0.736842 -1.78296e-07 1.92105 -1.1503e-07 3.36842C-5.17635e-08 4.81579 1.18421 6 2.63158 6C4.07895 6 5.26316 4.81579 5.26316 3.36842ZM7.89474 3.36842C7.89474 4.81579 9.07895 6 10.5263 6C11.9737 6 13.1579 4.81579 13.1579 3.36842C13.1579 1.92105 11.9737 0.736842 10.5263 0.736842C9.07895 0.736842 7.89474 1.92105 7.89474 3.36842ZM15.7895 3.36842C15.7895 4.81579 16.9737 6 18.4211 6C19.8684 6 21.0526 4.81579 21.0526 3.36842C21.0526 1.92105 19.8684 0.736841 18.4211 0.736841C16.9737 0.736841 15.7895 1.92105 15.7895 3.36842Z" fill="#E6E6E6"/>
</svg>
