<svg width="28" height="28" viewBox="0 0 28 28" fill="none" xmlns="http://www.w3.org/2000/svg">
<path d="M18.2696 18.6845C18.9837 19.702 19.6805 20.7034 20.3856 21.6971C20.4468 21.7679 20.5321 21.8136 20.625 21.8252C21.5271 21.9515 22.4303 22.0682 23.3437 22.1885V23.333L15.7012 23.333V22.1915L18.5743 21.8096L17.018 19.5841C16.7594 19.6924 16.505 19.7924 16.259 19.9109C16.2189 19.9307 16.1992 20.0306 16.2022 20.0947C16.2249 20.4359 16.2584 20.7765 16.2896 21.1332C15.9442 21.2128 15.6126 21.2954 15.2774 21.3589C15.2313 21.3679 15.1385 21.2942 15.1164 21.2392C15.0092 20.9686 14.9128 20.6939 14.8249 20.4167C14.7841 20.2874 14.7213 20.2443 14.5854 20.2587C14.3851 20.2832 14.1828 20.2886 13.9815 20.2749C13.8438 20.2629 13.7971 20.3132 13.7636 20.4287C13.6672 20.7567 13.5643 21.0829 13.4601 21.4223L12.3659 21.2284C12.3659 20.898 12.3527 20.5789 12.3707 20.2617C12.3815 20.0821 12.3444 19.9798 12.1588 19.9421C12.0577 19.9161 11.9593 19.8806 11.8649 19.8361C11.4932 19.6835 11.4938 19.6829 11.2298 20.0025C11.0682 20.1976 10.9048 20.3916 10.73 20.6011L9.75673 19.981C9.90698 19.6643 10.0446 19.3596 10.1961 19.0616C10.2559 18.9418 10.2458 18.8718 10.1434 18.7772C9.95785 18.6054 9.79324 18.4103 9.61966 18.2241L8.52128 18.797L7.86285 17.856C8.12143 17.6208 8.36983 17.3861 8.62842 17.1629C8.72599 17.0791 8.74814 17.009 8.6799 16.8977C8.62253 16.7928 8.57214 16.6842 8.52906 16.5727C8.36206 16.1794 8.36266 16.1782 7.93049 16.2135C7.68567 16.2357 7.44145 16.2608 7.17688 16.2872C7.09248 15.9149 7.01108 15.5539 6.92308 15.163C7.24033 15.0481 7.54859 14.9236 7.86524 14.8272C8.02805 14.777 8.06097 14.698 8.04781 14.5387C8.02865 14.3023 8.04302 14.0629 8.04302 13.8109L6.88837 13.4487C6.95361 13.0758 7.01707 12.7107 7.07872 12.3569C7.40494 12.3569 7.72398 12.3438 8.04062 12.3617C8.22678 12.3725 8.32255 12.3306 8.37343 12.1367C8.43329 11.9224 8.53325 11.7177 8.62603 11.4872L7.70423 10.724C7.90834 10.4026 8.11065 10.0854 8.32315 9.75135C8.64159 9.90159 8.95285 10.0417 9.25692 10.1955C9.37005 10.2524 9.43649 10.2434 9.52149 10.1434C9.67592 9.96384 9.84831 9.79504 10.0243 9.61009C9.99676 9.56579 9.96923 9.51491 9.93631 9.46762C9.27788 8.53086 8.61945 7.59529 7.9694 6.65433C7.93469 6.59844 7.88714 6.55164 7.83072 6.5178C7.7743 6.48397 7.71062 6.46408 7.64497 6.4598C6.75609 6.35085 5.86841 6.22635 4.96875 6.10604V4.96875L12.6071 4.96875V6.11202L9.73399 6.49391L11.2867 8.71462C11.5411 8.60867 11.7895 8.5117 12.0295 8.39738C12.0548 8.37663 12.0749 8.35033 12.0883 8.32053C12.1017 8.29073 12.108 8.25823 12.1067 8.22559C12.084 7.8832 12.0469 7.54142 12.0151 7.1703L13.1393 6.91651C13.2548 7.23914 13.3787 7.5498 13.4763 7.86764C13.5241 8.02147 13.596 8.06038 13.7504 8.04063C13.9284 8.01075 14.1097 8.00552 14.2891 8.02506C14.4687 8.0526 14.5202 7.97299 14.5621 7.82634C14.6507 7.51269 14.7524 7.20203 14.8524 6.8782L15.9442 7.07094C15.9442 7.4223 15.952 7.75631 15.94 8.08851C15.9352 8.23038 15.9687 8.30041 16.113 8.3453C16.347 8.41713 16.5715 8.51949 16.8181 8.61586L17.5807 7.69884L18.554 8.31896C18.3995 8.64518 18.2547 8.95644 18.1038 9.26231C18.0512 9.36766 18.0661 9.42812 18.1529 9.50893C18.3433 9.6885 18.518 9.88244 18.7018 10.0722L19.7888 9.50294L20.4472 10.4445C20.1893 10.6797 19.9409 10.915 19.6823 11.1382C19.5859 11.2214 19.5626 11.2915 19.6296 11.4028C19.6809 11.494 19.7255 11.5888 19.7631 11.6865C19.9504 12.1229 19.9498 12.1241 20.4215 12.0822C20.6508 12.0624 20.88 12.0355 21.1302 12.0098C21.2146 12.3821 21.296 12.743 21.3846 13.1351C21.068 13.2494 20.7591 13.3745 20.4431 13.4703C20.282 13.52 20.2455 13.5972 20.2587 13.7576C20.2784 13.994 20.2641 14.2335 20.2641 14.4837L21.4193 14.847C21.3579 15.2205 21.2954 15.5848 21.232 15.94C20.9058 15.94 20.5867 15.9532 20.2701 15.9352C20.0839 15.9244 19.9881 15.9669 19.9367 16.1603C19.8798 16.3746 19.7768 16.5793 19.6841 16.8091L20.6029 17.5765C20.3982 17.8991 20.1958 18.217 19.9845 18.548L18.9496 18.0619L18.2696 18.6845ZM17.3718 17.4041C18.9777 15.8682 19.2615 13.1776 17.7357 11.2801C16.9973 10.3553 15.93 9.75168 14.7569 9.5955C13.5838 9.43933 12.3958 9.74267 11.4411 10.4421C10.4861 11.1404 9.83762 12.1805 9.63086 13.3453C9.4241 14.5102 9.67505 15.7099 10.3314 16.6942C11.7332 18.7922 14.3472 19.1855 16.0962 18.2852C16.0561 18.2224 16.0196 18.1589 15.9765 18.0996C15.5096 17.4322 15.0355 16.769 14.577 16.0956C14.4058 15.8436 14.2496 15.6808 13.8911 15.6467C13.0644 15.5677 12.506 14.7375 12.6341 13.9013C12.7586 13.0758 13.5684 12.4964 14.4088 12.6317C15.2283 12.7634 15.8454 13.5738 15.6503 14.3873C15.5599 14.7674 15.6658 15.0038 15.8712 15.263C15.9358 15.345 15.9909 15.4342 16.0507 15.5198L17.3718 17.4041Z" fill="#E6E6E6"/>
<path d="M11.4151 11.9791C11.4141 11.9045 11.4279 11.8305 11.4559 11.7613C11.484 11.6922 11.5255 11.6294 11.5782 11.5766C11.6308 11.5237 11.6935 11.482 11.7625 11.4538C11.8316 11.4255 11.9056 11.4114 11.9801 11.4122C12.0566 11.4108 12.1326 11.4246 12.2037 11.4529C12.2748 11.4812 12.3395 11.5234 12.3941 11.577C12.4487 11.6307 12.492 11.6946 12.5215 11.7652C12.5511 11.8358 12.5662 11.9115 12.5661 11.988C12.5615 12.1387 12.4998 12.282 12.3934 12.3888C12.287 12.4957 12.144 12.558 11.9933 12.5633C11.9168 12.5635 11.841 12.5485 11.7704 12.5192C11.6997 12.4898 11.6356 12.4467 11.5818 12.3923C11.528 12.338 11.4855 12.2734 11.4569 12.2025C11.4283 12.1315 11.4141 12.0556 11.4151 11.9791Z" fill="#1D1D1F"/>
<path d="M16.8917 11.996C16.8894 12.146 16.8288 12.2892 16.7228 12.3954C16.6168 12.5015 16.4736 12.5622 16.3236 12.5647C16.1691 12.5605 16.0222 12.4968 15.9137 12.3868C15.8051 12.2768 15.7433 12.129 15.7412 11.9745C15.7435 11.8982 15.7607 11.8232 15.7921 11.7536C15.8234 11.6841 15.8681 11.6214 15.9238 11.5691C15.9794 11.5169 16.0447 11.4762 16.1161 11.4493C16.1875 11.4224 16.2635 11.4099 16.3398 11.4124C16.4146 11.4137 16.4884 11.43 16.5568 11.4601C16.6253 11.4903 16.687 11.5339 16.7384 11.5882C16.7898 11.6426 16.8298 11.7067 16.8562 11.7767C16.8825 11.8467 16.8945 11.9213 16.8917 11.996Z" fill="#1D1D1F"/>
<path d="M17.7893 14.1607C17.7887 14.3114 17.7285 14.4559 17.6219 14.5625C17.5153 14.6691 17.3709 14.7293 17.2201 14.7299C17.0656 14.7268 16.9183 14.6636 16.8096 14.5538C16.7009 14.4439 16.6392 14.2961 16.6377 14.1415C16.6439 13.9909 16.7071 13.8482 16.8146 13.7425C16.9221 13.6368 17.0658 13.5759 17.2165 13.5723C17.2931 13.5721 17.369 13.5873 17.4396 13.617C17.5102 13.6467 17.5741 13.6903 17.6275 13.7451C17.681 13.8 17.7228 13.8651 17.7506 13.9365C17.7784 14.0079 17.7916 14.0841 17.7893 14.1607Z" fill="#1D1D1F"/>
<path d="M14.1444 17.7864C13.9937 17.7853 13.8495 17.7249 13.7429 17.6183C13.6364 17.5116 13.5761 17.3673 13.5752 17.2166C13.5783 17.0621 13.6415 16.9149 13.7514 16.8063C13.8612 16.6977 14.0091 16.6361 14.1636 16.6348C14.3142 16.641 14.4569 16.7042 14.5626 16.8117C14.6683 16.9192 14.7292 17.0629 14.7328 17.2136C14.7329 17.2901 14.7175 17.3659 14.6878 17.4365C14.658 17.507 14.6144 17.5708 14.5596 17.6242C14.5047 17.6776 14.4397 17.7195 14.3684 17.7474C14.2971 17.7752 14.221 17.7885 14.1444 17.7864Z" fill="#1D1D1F"/>
<path d="M14.1576 10.5157C14.3084 10.5149 14.4534 10.5736 14.5611 10.6791C14.6688 10.7845 14.7305 10.9282 14.7329 11.079C14.7313 11.2335 14.6697 11.3814 14.5609 11.4912C14.4522 11.6011 14.305 11.6643 14.1505 11.6674C13.9999 11.6625 13.8567 11.6006 13.75 11.4943C13.6432 11.388 13.5808 11.2451 13.5752 11.0945C13.5744 11.018 13.589 10.9421 13.618 10.8712C13.647 10.8004 13.6899 10.7361 13.7442 10.6822C13.7985 10.6282 13.8631 10.5857 13.9341 10.5571C14.0051 10.5285 14.0811 10.5144 14.1576 10.5157Z" fill="#1D1D1F"/>
<path d="M10.5177 14.1469C10.517 13.9962 10.5759 13.8512 10.6815 13.7437C10.787 13.6361 10.9308 13.5745 11.0815 13.5723C11.236 13.5736 11.3838 13.6353 11.4935 13.7441C11.6032 13.8529 11.6661 14.0002 11.6687 14.1547C11.6642 14.3054 11.6025 14.4488 11.4961 14.5556C11.3897 14.6625 11.2466 14.7248 11.0959 14.7299C11.0194 14.7306 10.9434 14.716 10.8726 14.6869C10.8018 14.6578 10.7376 14.6148 10.6837 14.5605C10.6298 14.5061 10.5873 14.4415 10.5588 14.3705C10.5303 14.2995 10.5163 14.2234 10.5177 14.1469Z" fill="#1D1D1F"/>
<path d="M11.4155 16.3051C11.4183 16.1546 11.4797 16.0112 11.5867 15.9053C11.6937 15.7994 11.8378 15.7395 11.9883 15.7383C12.1429 15.7425 12.2898 15.8068 12.3978 15.9176C12.5057 16.0283 12.5663 16.1768 12.5665 16.3315C12.5642 16.408 12.5467 16.4833 12.515 16.553C12.4832 16.6227 12.4379 16.6854 12.3817 16.7374C12.3255 16.7894 12.2595 16.8297 12.1875 16.8559C12.1155 16.882 12.0391 16.8936 11.9626 16.8899C11.8881 16.8879 11.8148 16.8712 11.7468 16.8406C11.6789 16.81 11.6177 16.7663 11.5668 16.7119C11.5159 16.6575 11.4763 16.5935 11.4504 16.5237C11.4244 16.4539 11.4125 16.3796 11.4155 16.3051Z" fill="#1D1D1F"/>
</svg>
