<svg width="85" height="36" viewBox="0 0 85 36" fill="none" xmlns="http://www.w3.org/2000/svg">
<path d="M42.0732 35.9931H0.681135C0.024283 35.9931 0.0260136 35.9931 0.0242851 35.3362C0.0242851 32.1401 -0.00164583 28.9406 8.27328e-05 25.7462C8.27328e-05 17.3638 0.00815187 8.98205 0.0242851 0.600843C0.0242851 0.00276211 0.0242876 0.00103469 0.610269 0.00103469C24.4321 0.00103469 48.2534 0.00103469 72.0741 0.00103469C72.2441 -0.00608339 72.4137 0.0235904 72.5712 0.0880284C72.7287 0.152466 72.8705 0.250149 72.9867 0.374403C76.5418 3.94676 80.1049 7.50874 83.6761 11.0604C83.8064 11.1797 83.9093 11.3259 83.9776 11.4888C84.046 11.6518 84.0782 11.8276 84.072 12.0041C84.0616 19.7965 84.0616 27.5883 84.072 35.3794C84.072 36 84.072 36 83.4307 36L42.0732 35.9931ZM42.0179 34.204H57.2292C65.411 34.204 73.5929 34.2069 81.7747 34.2127C82.174 34.2127 82.2743 34.102 82.2743 33.7079C82.2628 26.6208 82.2628 19.5338 82.2743 12.4467C82.2794 12.3275 82.2584 12.2086 82.2127 12.0984C82.167 11.9883 82.0978 11.8894 82.0098 11.8088C78.7636 8.57642 75.5237 5.3371 72.2901 2.09086C72.1951 1.98816 72.0786 1.90766 71.949 1.85508C71.8193 1.8025 71.6796 1.77913 71.5399 1.78664C48.4798 1.79355 25.4185 1.79355 2.35611 1.78664C1.73556 1.78664 1.80643 1.72095 1.80643 2.34323C1.80643 12.7434 1.80643 23.1436 1.80643 33.5437C1.80643 34.2784 1.71135 34.1954 2.44081 34.1954L42.0179 34.204Z" fill="#313133"/>
<path d="M52.3455 18.1444V4.48879C52.3455 3.908 52.3455 3.90454 52.9021 3.90454C56.9354 3.90454 60.9687 3.90454 65.002 3.90454C66.5007 3.90454 68.0028 3.94948 69.4686 4.26927C71.8298 4.78783 73.8108 5.91486 75.0899 8.05654C75.5639 8.88223 75.8407 9.80626 75.8989 10.7565C76.0717 12.7167 75.8626 14.613 74.8514 16.3415C73.9231 17.9249 72.5195 19.0104 70.9379 19.8868C70.8672 19.9355 70.7912 19.9761 70.7115 20.0078C70.3502 20.1184 70.3986 20.2913 70.5922 20.5385C71.6662 21.9086 72.7356 23.2851 73.8004 24.668C75.7087 27.1191 77.6165 29.5702 79.5236 32.0213C79.5962 32.1164 79.757 32.2028 79.6723 32.3411C79.6118 32.4379 79.4597 32.3964 79.3456 32.3964C76.6093 32.3964 73.873 32.3964 71.1367 32.3964C71.0308 32.4047 70.9246 32.3848 70.8289 32.3386C70.7332 32.2925 70.6515 32.2217 70.5922 32.1336C68.1722 28.8609 65.7522 25.591 63.3322 22.3241C63.2654 22.216 63.1704 22.1282 63.0574 22.07C62.9444 22.0119 62.8177 21.9856 62.6909 21.9939C61.8422 22.0077 60.9918 22.0164 60.1413 21.9939C59.7714 21.9835 59.685 22.1184 59.6867 22.4658C59.6971 25.6066 59.6867 28.7457 59.7005 31.8865C59.7005 32.2736 59.6055 32.405 59.1993 32.405C57.0823 32.3854 54.9654 32.3854 52.8485 32.405C52.4475 32.405 52.3403 32.2875 52.3421 31.8865C52.3513 27.3046 52.3524 22.7239 52.3455 18.1444ZM59.6884 12.9587C59.6884 14.11 59.6884 15.2612 59.6884 16.4158C59.6884 16.644 59.7126 16.8082 60.0082 16.8013C61.6158 16.7616 63.2251 16.8601 64.8326 16.6492C66.5888 16.4176 68.4142 15.1142 68.3226 12.6217C68.2517 10.6684 67.244 9.70559 65.4566 9.3737C63.6693 9.04182 61.8111 9.25789 59.9875 9.20085C59.6711 9.19047 59.6884 9.3858 59.6884 9.59669C59.6896 10.7145 59.6896 11.8346 59.6884 12.957V12.9587Z" fill="#313133"/>
<path d="M44.7983 16.727C45.5226 16.9811 46.2088 17.1367 46.8553 17.4184C49.3427 18.485 50.8033 20.7027 50.8431 23.4027C50.8759 25.5669 50.3021 27.5028 48.8138 29.1069C47.4845 30.5296 45.8251 31.4249 43.9461 31.9003C42.3317 32.31 40.6861 32.4189 39.0249 32.4068C35.0066 32.3895 30.9889 32.3895 26.9717 32.4068C26.5447 32.4068 26.4531 32.2789 26.4531 31.8709C26.4658 22.7268 26.4658 13.5828 26.4531 4.43868C26.4531 4.0221 26.5672 3.90283 26.9838 3.90456C30.714 3.92012 34.4443 3.90456 38.1745 3.91839C39.5559 3.89793 40.9372 3.96143 42.3109 4.10853C43.8424 4.3004 45.2927 4.76365 46.5632 5.65386C48.4646 6.98139 49.0869 8.90355 48.9192 11.1213C48.7291 13.6294 47.3721 15.3511 45.1734 16.4695C45.0974 16.5086 45.023 16.5518 44.9504 16.5991C44.8969 16.6382 44.8461 16.681 44.7983 16.727ZM33.803 23.6412C33.803 24.6352 33.8254 25.6291 33.7926 26.6213C33.7788 27.0742 33.9378 27.1813 34.363 27.171C35.7597 27.1398 37.1564 27.1301 38.553 27.1416C39.3028 27.1477 40.0484 27.0309 40.7604 26.7959C41.8529 26.4398 42.7344 25.84 43.0317 24.649C43.2408 23.8374 43.2217 22.9838 42.9764 22.1823C42.8852 21.8715 42.7306 21.583 42.5224 21.3349C42.3141 21.0867 42.0567 20.8844 41.7664 20.7407C41.189 20.4439 40.5588 20.2636 39.9117 20.2101C38.0103 20.0372 36.1089 20.096 34.2074 20.077C33.8617 20.077 33.7943 20.2325 33.7978 20.5264C33.8081 21.5549 33.8047 22.592 33.803 23.6291V23.6412ZM33.803 12.1619C33.803 13.0262 33.803 13.8904 33.803 14.7547C33.803 15.0088 33.8548 15.1678 34.1573 15.1609C35.7355 15.1194 37.324 15.2629 38.8884 14.9725C40.6273 14.6493 41.2427 13.8611 41.3671 12.4575C41.4778 11.1973 41.1199 9.89229 39.4847 9.43422C39.0725 9.30662 38.6454 9.2334 38.2142 9.21642C36.8763 9.19913 35.5402 9.19568 34.204 9.17494C33.9049 9.17494 33.796 9.28038 33.8012 9.57769C33.8185 10.4281 33.803 11.2924 33.803 12.155V12.1619Z" fill="#313133"/>
<path d="M3.61249 18.1352C3.61249 13.57 3.61249 9.00318 3.60211 4.43806C3.60211 3.9869 3.73175 3.89356 4.15871 3.89529C10.6546 3.90912 17.1506 3.90912 23.6465 3.89529C24.2048 3.89529 24.2048 3.89529 24.2048 4.46571C24.2048 5.93499 24.191 7.40426 24.2135 8.87354C24.2135 9.30222 24.1097 9.4405 23.662 9.43878C19.657 9.42149 15.6536 9.42841 11.6486 9.42841C10.9295 9.42841 10.9295 9.4284 10.9295 10.17C10.9295 11.3373 10.9295 12.5041 10.9295 13.6703C10.9295 14.3185 10.9295 14.3185 11.5984 14.3185H22.6612C23.2697 14.3185 23.2714 14.3185 23.2714 14.9079C23.2714 16.4066 23.2593 17.9053 23.2714 19.4022C23.2714 19.7911 23.1452 19.8862 22.7736 19.8845C19.0001 19.8724 15.2267 19.8845 11.4532 19.8689C11.0436 19.8689 10.9087 19.9726 10.9122 20.3875C10.9329 22.3615 10.9208 24.3338 10.9226 26.3078C10.9226 26.8575 10.9226 26.8661 11.4792 26.8661H23.6206C24.1962 26.8661 24.1979 26.8661 24.1979 27.4296C24.1979 28.9283 24.1875 30.4252 24.2065 31.9239C24.2065 32.2903 24.089 32.3785 23.7381 32.3785C17.1846 32.3681 10.631 32.3681 4.07747 32.3785C3.69891 32.3785 3.59692 32.2834 3.59692 31.8997C3.61767 27.3242 3.61249 22.7297 3.61249 18.1352Z" fill="#313133"/>
</svg>
