<svg width="28" height="28" viewBox="0 0 28 28" fill="none" xmlns="http://www.w3.org/2000/svg">
<path d="M2 11.5011C2.03189 11.3615 2.06136 11.2218 2.09663 11.0827C2.33096 10.1203 2.88947 9.36074 3.60212 8.70221C4.61383 7.7678 5.80818 7.13005 7.07354 6.61839C8.7003 5.96083 10.3947 5.54629 12.1307 5.30471C12.5838 5.24142 13.038 5.18441 13.5076 5.12305L13.5076 18.6773C12.9907 18.6126 12.4819 18.5589 11.976 18.484C10.5976 18.2777 9.24143 17.9729 7.92243 17.5177C6.50149 17.0244 5.15013 16.3963 3.97511 15.4402C3.16294 14.7744 2.49329 14.0014 2.16813 12.9771C2.0976 12.7558 2.05508 12.5249 2 12.2983V11.5011Z" fill="#1D1D1F"/>
<path d="M14.0977 18.7334L14.0977 5.07966C14.5228 5.0584 14.9427 5.02265 15.3621 5.01927C16.8226 5.00815 18.2837 5.00864 19.7442 5.00429C19.9012 5.00429 20.0583 4.99704 20.2153 5.00139C20.4569 5.00767 20.5569 5.10865 20.5535 5.34877C20.5288 6.36339 20.0819 7.17894 19.3277 7.83312C18.588 8.47523 17.7097 8.79314 16.7434 8.88687L16.6279 8.89847V9.12796C16.6279 11.8745 16.6279 14.6212 16.6279 17.3681C16.6279 17.9754 16.3863 18.4271 15.8307 18.6929C15.7462 18.7401 15.6524 18.7682 15.5558 18.775C15.0736 18.7687 14.5929 18.7489 14.0977 18.7334Z" fill="#1D1D1F"/>
<path d="M6.85194 17.5195C7.31818 17.6833 7.75833 17.8659 8.21394 17.9921C9.10052 18.237 9.99434 18.4554 10.8877 18.6747C11.1587 18.7409 11.1626 18.726 11.1626 18.9955C11.1626 19.599 11.1626 20.2034 11.1626 20.8059C11.1578 21.9249 10.3292 22.8859 9.28315 22.9878C8.08301 23.1013 7.09303 22.3742 6.87079 21.2103C6.85047 21.0913 6.84125 20.9706 6.84325 20.8499C6.84131 19.7821 6.84131 18.714 6.84325 17.6456C6.84325 17.6075 6.84808 17.5722 6.85194 17.5195ZM10.1596 20.8533C10.162 20.7009 10.1341 20.5496 10.0775 20.4082C10.0209 20.2667 9.93679 20.1379 9.82996 20.0293C9.72314 19.9207 9.59577 19.8344 9.45528 19.7754C9.31478 19.7165 9.16397 19.6861 9.01162 19.686C8.78132 19.6831 8.55535 19.7487 8.3624 19.8745C8.16944 20.0002 8.0182 20.1805 7.92785 20.3923C7.8375 20.6042 7.81213 20.8381 7.85494 21.0644C7.89775 21.2907 8.00683 21.4992 8.16832 21.6634C8.32982 21.8276 8.53645 21.9402 8.76201 21.9868C8.98757 22.0333 9.22188 22.0119 9.43522 21.9251C9.64856 21.8383 9.8313 21.6901 9.96027 21.4992C10.0892 21.3084 10.1586 21.0836 10.1596 20.8533Z" fill="#1D1D1F"/>
<path d="M17.0137 16.8607V9.25164L18.108 8.99219C18.1732 9.32314 18.25 9.65603 18.3013 9.99279C18.4738 11.0785 18.4979 12.1826 18.3728 13.2748C18.2515 14.3377 18.0418 15.3828 17.4799 16.3187C17.3586 16.5206 17.1978 16.6984 17.0552 16.8873L17.0137 16.8607Z" fill="#1D1D1F"/>
<path d="M20.5537 9.77144L25.3261 6.58984" stroke="#1D1D1F" stroke-width="2.03825" stroke-linecap="round"/>
<path d="M20.5537 16.1348L25.3261 19.3164" stroke="#1D1D1F" stroke-width="2.03825" stroke-linecap="round"/>
<path d="M20.5537 12.9531H26.9169" stroke="#1D1D1F" stroke-width="2.03825" stroke-linecap="round"/>
</svg>
