<svg width="36" height="34" viewBox="0 0 36 34" fill="none" xmlns="http://www.w3.org/2000/svg">
<path d="M18.1062 27.4136L18.6227 27.726L27.0805 32.8414L27.0807 32.8416C27.8689 33.3186 28.8338 32.6177 28.6256 31.7225L26.3839 22.1036L26.2469 21.516L26.7029 21.1209L34.1824 14.64L34.1828 14.6397C34.8817 14.0346 34.4996 12.8979 33.5963 12.8261L33.591 12.8257L23.7474 11.9901L23.1466 11.9391L22.9113 11.3838L19.0594 2.29429L19.0581 2.29115C18.7082 1.45764 17.5022 1.45764 17.1523 2.29115L17.1507 2.29503L13.2988 11.3642L13.0633 11.9187L12.463 11.9697L2.61937 12.8053L2.61408 12.8057L2.61408 12.8057C1.71081 12.8775 1.32869 14.0143 2.02762 14.6193L2.02797 14.6196L9.50747 21.1005L9.96347 21.4956L9.82652 22.0832L7.58482 31.7022L18.1062 27.4136ZM18.1062 27.4136L17.5892 27.7251M18.1062 27.4136L17.5892 27.7251M17.5892 27.7251L9.13143 32.8201L9.12965 32.8212M17.5892 27.7251L9.12965 32.8212M9.12965 32.8212C8.34165 33.2982 7.37697 32.5976 7.58471 31.7026L9.12965 32.8212Z" stroke="#FAC300" stroke-width="2"/>
</svg>
