<svg width="18" height="18" viewBox="0 0 18 18" fill="none" xmlns="http://www.w3.org/2000/svg">
<g clip-path="url(#clip0_307_25274)">
<path d="M14.4223 11.3205L12.5173 11.1143C12.0598 11.0645 11.6098 11.2138 11.2873 11.5196L9.90729 12.828C7.78479 11.804 6.04479 10.1614 4.96479 8.14182L6.35229 6.82626C6.67479 6.52049 6.83229 6.09382 6.77979 5.66004L6.56229 3.86804C6.47229 3.14982 5.83479 2.60938 5.06979 2.60938H3.77229C2.92479 2.60938 2.21979 3.27782 2.27229 4.08138C2.66979 10.1543 7.79229 15.004 14.1898 15.3809C15.0373 15.4307 15.7423 14.7623 15.7423 13.9587V12.7285C15.7498 12.0103 15.1798 11.4058 14.4223 11.3205V11.3205Z" fill="white"/>
</g>
<defs>
<clipPath id="clip0_307_25274">
<rect width="18" height="17.0667" fill="white" transform="translate(0 0.46875)"/>
</clipPath>
</defs>
</svg>
