<svg width="20" height="20" viewBox="0 0 20 20" fill="none" xmlns="http://www.w3.org/2000/svg">
<path d="M17.7778 0L2.22222 0C1 0 0 1 0 2.22222L0 17.7778C0 19 1 20 2.22222 20L17.7778 20C19 20 20 19 20 17.7778L20 2.22222C20 1 19 0 17.7778 0ZM8.56667 14.7667C8.13333 15.2 7.43333 15.2 7 14.7667L3.01111 10.7778C2.57778 10.3444 2.57778 9.64444 3.01111 9.21111C3.44444 8.77778 4.14444 8.77778 4.57778 9.21111L7.77778 12.4111L15.4222 4.76667C15.8556 4.33333 16.5556 4.33333 16.9889 4.76667C17.4222 5.2 17.4222 5.9 16.9889 6.33333L8.56667 14.7667Z" fill="#1D1D1F"/>
</svg>
