<svg width="28" height="28" viewBox="0 0 28 28" fill="none" xmlns="http://www.w3.org/2000/svg">
<path d="M10.8333 8.67845C9.63333 8.39322 7.44444 8.5596 6.5 8.67845C6 9.92659 6.5 10.1043 6.5 10.6391C6.5 11.174 10.3333 11.7088 11.8333 12.4218C13.3333 13.1349 14.1667 14.9176 13.6667 17.4134C13.1667 19.9091 9 20.6222 7 20.8005C5 20.9788 5 21.157 5 22.2266C5 23.0823 6 23.0586 6.5 22.9397C7.94444 22.8803 11.4 22.4406 13.6667 21.157C16.5 19.5526 16 15.9872 16.5 13.848C17 11.7088 17.8333 10.9957 18.6667 10.6391C19.5 10.2826 19.6667 10.4609 20.1667 11.3522C20.6667 12.2436 20.5 14.0263 20.6667 15.9872C20.8333 17.9482 21.6667 18.1264 22 19.0178C22.2667 19.7309 22.7778 19.3149 23 19.0178C22.7222 18.6018 22.0667 17.4134 21.6667 15.9872C21.1667 14.2045 21.6667 13.4915 21.6667 12.7784C21.6667 12.0653 21 11.3522 21 10.1043C21 8.85646 20.5 6.0043 20.1667 5.46949C19.8333 4.93469 18.3333 4.57815 17.8333 6.0043C17.3333 7.43045 17.5 7.60872 16 8.67845C14.5 9.74818 12.3333 9.03499 10.8333 8.67845Z" fill="#1D1D1F"/>
</svg>
