<svg width="28" height="28" viewBox="0 0 28 28" fill="none" xmlns="http://www.w3.org/2000/svg">
<circle cx="13.5" cy="13.5" r="10.35" stroke="#1D1D1F" stroke-width="2.3"/>
<path d="M11.1721 25.7667L11.0013 25.6742C10.7284 25.5264 10.363 25.3006 10.1864 24.8824C10.0117 24.4689 10.0999 24.0502 10.1786 23.7528C10.1786 23.7526 10.1787 23.7525 10.1787 23.7523L11.1849 19.9435L11.9719 16.9644H11.9702H11.9599H11.9496H11.9393H11.929H11.9187H11.9083H11.898H11.8877H11.8774H11.8671H11.8567H11.8464H11.8361H11.8258H11.8155H11.8052H11.7948H11.7845H11.7742H11.7639H11.7536H11.7432H11.7329H11.7226H11.7123H11.702H11.6917H11.6813H11.671H11.6607H11.6504H11.6401H11.6297H11.6194H11.6091H11.5988H11.5885H11.5781H11.5678H11.5575H11.5472H11.5369H11.5266H11.5162H11.5059H11.4956H11.4853H11.475H11.4646H11.4543H11.444H11.4337H11.4234H11.4131H11.4027H11.3924H11.3821H11.3718H11.3615H11.3511H11.3408H11.3305H11.3202H11.3099H11.2995H11.2892H11.2789H11.2686H11.2583H11.248H11.2376H11.2273H11.217H11.2067H11.1964H11.186H11.1757H11.1654H11.1551H11.1448H11.1345H11.1241H11.1138H11.1035H11.0932H11.0829H11.0725H11.0622H11.0519H11.0416H11.0313H11.0209H11.0106H11.0003H10.99H10.9797H10.9694H10.959H10.9487H10.9384H10.9281H10.9178H10.9074H10.8971H10.8868H10.8765H10.8662H10.8559H10.8455H10.8352H10.8249H10.8146H10.8043H10.7939H10.7836H10.7733H10.763H10.7527H10.7424H10.732H10.7217H10.7114H10.7011H10.6908H10.6804H10.6701H10.6598H10.6495H10.6392H10.6288H10.6185H10.6082H10.5979H10.5876H10.5773H10.5669H10.5566H10.5463H10.536H10.5257H10.5153H10.505H10.4947H10.4844H10.4741H10.4638H10.4534H10.4431H10.4328H10.4225H10.4122H10.4018H10.3915H10.3812H10.3709H10.3606H10.3502H10.3399H10.3296H10.3193H10.309H10.2987H10.2883H10.278H10.2677H10.2574H10.2471H10.2367H10.2264H10.2161H10.2058H10.1955H10.1852H10.1748H10.1645H10.1542H10.1439H10.1336H10.1232H10.1129H10.1026H10.0923H10.082H10.0716H10.0613H10.051H10.0407H10.0304H10.0201H10.0097H9.99942H9.9891H9.97878H9.96846H9.95815H9.94783H9.93751H9.92719H9.91687H9.90655H9.89624H9.88592H9.8756H9.86528H9.85496H9.84464H9.83432H9.82401H9.81369H9.80337H9.79305H9.78273H9.77241H9.7621H9.75178H9.74146H9.73114H9.72082H9.7105H9.70018H9.68987H9.67955H9.66923H9.65891H9.64859H9.63827H9.62796H9.61764H9.60732H9.597H9.58668H9.57636H9.56604H9.55573H9.54541H9.53509H9.52477H9.51445H9.50413H9.49381H9.4835H9.47318H9.46286H9.45254H9.44222H9.4319H9.42159H9.41127H9.40095H9.39063H9.38031H9.36999H9.35967H9.34936H9.33904H9.32872H9.3184H9.30808H9.29776H9.28745H9.27713H9.26681H9.25649H9.24617H9.23585H9.22553H9.21522H9.2049H9.19458H9.18426H9.17394H9.16362H9.15331H9.14299H9.13267H9.12235H9.11203H9.10171H9.09139H9.08108H9.07076H9.06044H9.05012H9.0398H9.02948H9.01917H9.00885H8.99853H8.98821H8.97789H8.96757H8.95725H8.94694H8.93662H8.9263H8.91598H8.90566H8.89534H8.88502H8.87471H8.86439H8.85407H8.84375H8.83343H8.82311H8.8128H8.80248H8.79216H8.78184H8.77152H8.7612H8.75088H8.74057H8.73025H8.71993H8.70961H8.69929H8.68897H8.67866H8.66834H8.65802H8.6477H8.63738H8.62706H8.61674H8.60643H8.59611H8.58579H8.57547H8.56515H8.55483H8.54452H8.5342H8.52388H8.51356H8.50324H8.49292H8.4826H8.47229H8.46197H8.45165H8.44133H8.43101H8.42069H8.41037H8.40006H8.38974H8.37942H8.3691H8.35878H8.34846H8.33815H8.32783H8.31751H8.30719H8.29687H8.28655H8.27623H8.26592H8.2556H8.24528H8.23496H8.22464H8.21432H8.20401H8.19369H8.18337H8.17305H8.16273H8.15241H8.14209H8.13178H8.12146H8.11114H8.10082H8.0905H8.08018H8.06987H8.05955H8.04923H8.03891H8.02859H8.01827H8.00795H7.99764H7.98732H7.977H7.96668H7.95636H7.94604H7.93573H7.92541H7.91509H7.90477H7.89445H7.88413H7.87381H7.8635H7.85318H7.84286H7.83254H7.82222H7.8119H7.80158H7.79127H7.78095H7.77063H7.76031H7.74999H7.73967H7.72936H7.71904H7.70872H7.6984H7.68808H7.67776H7.66744H7.65713H7.64681H7.63649H7.62617H7.61585H7.60553H7.59522H7.5849H7.57458H7.56426H7.55394H7.54362H7.5333H7.52299H7.51267H7.50235H7.49203H7.48171H7.47139H7.46108H7.45076H7.44044H7.43012H7.4198C6.97726 16.9644 6.37745 16.843 6.02292 16.2258C5.86108 15.944 5.8027 15.6392 5.84754 15.3345C5.88926 15.0511 6.01306 14.817 6.12922 14.6419C8.91729 10.4314 11.7035 6.21932 14.4878 2.00563L15.1274 2.42829L14.4874 2.00625C14.6583 1.74701 14.8891 1.51023 15.1952 1.36701C15.5136 1.218 15.8559 1.19784 16.1825 1.28541L16.1831 1.28557C16.5607 1.38712 16.8861 1.62267 17.0823 1.96665C17.2783 2.31007 17.3158 2.70916 17.2167 3.08645L17.2166 3.08682C16.7478 4.86852 16.2775 6.64982 15.8058 8.43073L11.1721 25.7667ZM11.1721 25.7667H11.3664H11.7437H12.0222L12.2358 25.588C12.2698 25.5595 12.2893 25.5457 12.3202 25.5239C12.3488 25.5038 12.3871 25.4768 12.4556 25.4249C12.5545 25.3501 12.7166 25.2203 12.8439 25.0282L12.844 25.0281C15.6405 20.8043 18.4369 16.5797 21.233 12.3543C21.4964 11.9579 21.6812 11.3645 21.3187 10.7585C20.9665 10.1696 20.3911 10.0429 19.9457 10.0429H19.9354H19.925H19.9147H19.9044H19.8941H19.8838H19.8735H19.8631H19.8528H19.8425H19.8322H19.8219H19.8115H19.8012H19.7909H19.7806H19.7703H19.76H19.7496H19.7393H19.729H19.7187H19.7084H19.698H19.6877H19.6774H19.6671H19.6568H19.6464H19.6361H19.6258H19.6155H19.6052H19.5949H19.5845H19.5742H19.5639H19.5536H19.5433H19.5329H19.5226H19.5123H19.502H19.4917H19.4814H19.471H19.4607H19.4504H19.4401H19.4298H19.4194H19.4091H19.3988H19.3885H19.3782H19.3679H19.3575H19.3472H19.3369H19.3266H19.3163H19.3059H19.2956H19.2853H19.275H19.2647H19.2543H19.244H19.2337H19.2234H19.2131H19.2028H19.1924H19.1821H19.1718H19.1615H19.1512H19.1408H19.1305H19.1202H19.1099H19.0996H19.0893H19.0789H19.0686H19.0583H19.048H19.0377H19.0273H19.017H19.0067H18.9964H18.9861H18.9757H18.9654H18.9551H18.9448H18.9345H18.9242H18.9138H18.9035H18.8932H18.8829H18.8726H18.8622H18.8519H18.8416H18.8313H18.821H18.8107H18.8003H18.79H18.7797H18.7694H18.7591H18.7487H18.7384H18.7281H18.7178H18.7075H18.6971H18.6868H18.6765H18.6662H18.6559H18.6456H18.6352H18.6249H18.6146H18.6043H18.594H18.5836H18.5733H18.563H18.5527H18.5424H18.5321H18.5217H18.5114H18.5011H18.4908H18.4805H18.4701H18.4598H18.4495H18.4392H18.4289H18.4186H18.4082H18.3979H18.3876H18.3773H18.367H18.3566H18.3463H18.336H18.3257H18.3154H18.305H18.2947H18.2844H18.2741H18.2638H18.2535H18.2431H18.2328H18.2225H18.2122H18.2019H18.1915H18.1812H18.1709H18.1606H18.1503H18.14H18.1296H18.1193H18.109H18.0987H18.0884H18.078H18.0677H18.0574H18.0471H18.0368H18.0264H18.0161H18.0058H17.9955H17.9852H17.9749H17.9645H17.9542H17.9439H17.9336H17.9233H17.9129H17.9026H17.8923H17.882H17.8717H17.8614H17.851H17.8407H17.8304H17.8201H17.8098H17.7994H17.7891H17.7788H17.7685H17.7582H17.7478H17.7375H17.7272H17.7169H17.7066H17.6963H17.6859H17.6756H17.6653H17.655H17.6447H17.6343H17.624H17.6137H17.6034H17.5931H17.5828H17.5724H17.5621H17.5518H17.5415H17.5312H17.5208H17.5105H17.5002H17.4899H17.4796H17.4693H17.4589H17.4486H17.4383H17.428H17.4177H17.4073H17.397H17.3867H17.3764H17.3661H17.3557H17.3454H17.3351H17.3248H17.3145H17.3042H17.2938H17.2835H17.2732H17.2629H17.2526H17.2422H17.2319H17.2216H17.2113H17.201H17.1907H17.1803H17.17H17.1597H17.1494H17.1391H17.1287H17.1184H17.1081H17.0978H17.0875H17.0771H17.0668H17.0565H17.0462H17.0359H17.0256H17.0152H17.0049H16.9946H16.9843H16.974H16.9636H16.9533H16.943H16.9327H16.9224H16.9121H16.9017H16.8914H16.8811H16.8708H16.8605H16.8501H16.8398H16.8295H16.8192H16.8089H16.7985H16.7882H16.7779H16.7676H16.7573H16.747H16.7366H16.7263H16.716H16.7057H16.6954H16.685H16.6747H16.6644H16.6541H16.6438H16.6335H16.6231H16.6128H16.6025H16.5922H16.5819H16.5715H16.5612H16.5509H16.5406H16.5303H16.52H16.5096H16.4993H16.489H16.4787H16.4684H16.458H16.4477H16.4374H16.4271H16.4168H16.4064H16.3961H16.3858H16.3755H16.3652H16.3549H16.3445H16.3342H16.3239H16.3136H16.3033H16.2929H16.2826H16.2723H16.262H16.2517H16.2414H16.231H16.2207H16.2104H16.2001H16.1898H16.1794H16.1691H16.1588H16.1485H16.1382H16.1278H16.1175H16.1072H16.0969H16.0866H16.0763H16.0659H16.0556H16.0453H16.035H16.0247H16.0143H16.004H15.9937H15.9834H15.9731H15.9628H15.9524H15.9421H15.9318H15.9215H15.9112H15.9008H15.8905H15.8802H15.8699H15.8596H15.8492H15.8389H15.8286H15.8183H15.808H15.7977H15.7873H15.777H15.7667H15.7564H15.7461H15.7357H15.7254H15.7151H15.7048H15.6945H15.6842H15.6738H15.6635H15.6532H15.6429H15.6326H15.6222H15.6119H15.6016H15.5913H15.581H15.5707H15.5603H15.55H15.5397H15.5294H15.5191H15.5087H15.4984H15.4881H15.4778H15.4675H15.4571H15.4468H15.4365H15.4262H15.4159H15.4056H15.3952H15.3849H15.38L15.8056 8.4313L11.1721 25.7667Z" fill="#1D1D1F" stroke="#F5F5F7" stroke-width="1.53333"/>
</svg>
