<svg width="17" height="16" viewBox="0 0 17 16" fill="none" xmlns="http://www.w3.org/2000/svg">
<path d="M15.1818 5.31364H10.392L11.1131 1.84459L11.1359 1.60168C11.1359 1.29045 11.0068 1.002 10.8019 0.797045L9.99723 0L5.00241 5.00241C4.72155 5.27568 4.55455 5.65523 4.55455 6.07273V13.6636C4.55455 14.4986 5.23773 15.1818 6.07273 15.1818H12.9045C13.5346 15.1818 14.0735 14.8023 14.3013 14.2557L16.5937 8.90414C16.662 8.72954 16.7 8.54736 16.7 8.35V6.83182C16.7 5.99682 16.0168 5.31364 15.1818 5.31364ZM15.1818 8.35L12.9045 13.6636H6.07273V6.07273L9.36718 2.77827L8.52459 6.83182H15.1818V8.35ZM0 6.07273H3.03636V15.1818H0V6.07273Z" fill="white"/>
</svg>
