<svg width="20" height="19" viewBox="0 0 20 19" fill="none" xmlns="http://www.w3.org/2000/svg">
<path d="M17.75 0.875L2.75 0.875C1.71875 0.875 0.875 1.71875 0.875 2.75L0.875 17.6936C0.875 18.4064 1.73671 18.7633 2.24069 18.2593L4.625 15.875L17.75 15.875C18.7813 15.875 19.625 15.0312 19.625 14L19.625 2.75C19.625 1.71875 18.7812 0.875 17.75 0.875ZM16.8125 14L4.625 14L2.75 15.875L2.75 3.6875C2.75 3.17187 3.17188 2.75 3.6875 2.75L16.8125 2.75C17.3281 2.75 17.75 3.17187 17.75 3.6875L17.75 13.0625C17.75 13.5781 17.3281 14 16.8125 14Z" fill="#1D1D1F"/>
</svg>
