<svg width="18" height="18" viewBox="0 0 18 18" fill="none" xmlns="http://www.w3.org/2000/svg">
<path d="M12.2849 10.8107H11.5085L11.2333 10.5454C12.1965 9.425 12.7763 7.97046 12.7763 6.38816C12.7763 2.85993 9.9164 0 6.38816 0C2.85993 0 0 2.85993 0 6.38816C0 9.9164 2.85993 12.7763 6.38816 12.7763C7.97046 12.7763 9.425 12.1965 10.5454 11.2333L10.8107 11.5085V12.2849L15.7247 17.1891L17.1891 15.7247L12.2849 10.8107ZM6.38816 10.8107C3.94101 10.8107 1.96559 8.83532 1.96559 6.38816C1.96559 3.94101 3.94101 1.96559 6.38816 1.96559C8.83532 1.96559 10.8107 3.94101 10.8107 6.38816C10.8107 8.83532 8.83532 10.8107 6.38816 10.8107Z" fill="#C4C4C4"/>
</svg>
