<svg width="19" height="21" viewBox="0 0 19 21" fill="none" xmlns="http://www.w3.org/2000/svg">
<path d="M15.8133 14.8434C15.012 14.8434 14.2952 15.1596 13.747 15.6551L6.23042 11.2801C6.28313 11.0377 6.3253 10.7952 6.3253 10.5422C6.3253 10.2892 6.28313 10.0467 6.23042 9.80422L13.6626 5.47139C14.2319 5.99849 14.9804 6.3253 15.8133 6.3253C17.5633 6.3253 18.9759 4.91265 18.9759 3.16265C18.9759 1.41265 17.5633 0 15.8133 0C14.0633 0 12.6506 1.41265 12.6506 3.16265C12.6506 3.41566 12.6928 3.65813 12.7455 3.9006L5.31325 8.23343C4.74398 7.70633 3.99548 7.37952 3.16265 7.37952C1.41265 7.37952 0 8.79217 0 10.5422C0 12.2922 1.41265 13.7048 3.16265 13.7048C3.99548 13.7048 4.74398 13.378 5.31325 12.8509L12.8193 17.2364C12.7666 17.4578 12.7349 17.6898 12.7349 17.9217C12.7349 19.619 14.116 21 15.8133 21C17.5105 21 18.8916 19.619 18.8916 17.9217C18.8916 16.2244 17.5105 14.8434 15.8133 14.8434Z" fill="#1D1D1F"/>
</svg>
