<svg width="16" height="5" viewBox="0 0 16 5" fill="none" xmlns="http://www.w3.org/2000/svg">
<path d="M12 2.01251C12 3.11939 12.9 4.02502 14 4.02502C15.1 4.02502 16 3.11939 16 2.01251C16 0.90563 15.1 -3.93402e-08 14 -8.74228e-08C12.9 -1.35505e-07 12 0.90563 12 2.01251ZM10 2.01251C10 0.90563 9.1 -3.01609e-07 8 -3.49691e-07C6.9 -3.97774e-07 6 0.90563 6 2.01251C6 3.11939 6.9 4.02502 8 4.02502C9.1 4.02502 10 3.11939 10 2.01251ZM4 2.01251C4 0.90563 3.1 -5.63877e-07 2 -6.11959e-07C0.9 -6.60042e-07 -3.95864e-08 0.90563 -8.79697e-08 2.01251C-1.36353e-07 3.11939 0.899999 4.02502 2 4.02502C3.1 4.02502 4 3.11939 4 2.01251Z" fill="#1D1D1F"/>
</svg>
