<svg width="22" height="22" viewBox="0 0 22 22" fill="none" xmlns="http://www.w3.org/2000/svg">
<g clip-path="url(#clip0_335_30263)">
<path d="M10.3125 0H11.6875C11.7425 0.0120312 11.7975 0.026211 11.8529 0.0356641C12.5404 0.154258 13.2546 0.198515 13.9154 0.402617C18.2604 1.7398 20.8981 4.64048 21.8286 9.10465C21.9106 9.50168 21.9424 9.90945 21.9979 10.3125V11.6875C21.9824 11.7421 21.9705 11.7976 21.9622 11.8538C21.7693 14.2639 20.888 16.3904 19.2981 18.2106C17.5923 20.1678 15.4511 21.3778 12.8915 21.8333C12.4919 21.9042 12.0867 21.945 11.6841 22H10.3125C10.2656 21.9849 10.2176 21.9736 10.169 21.9661C8.27535 21.8238 6.52566 21.2437 4.95129 20.1837C2.3491 18.4314 0.745508 16.008 0.171875 12.9168C0.09625 12.5104 0.0567188 12.0974 0 11.6875V10.3125C0.0124609 10.2502 0.0275 10.1883 0.0369532 10.126C0.111289 9.62414 0.159414 9.11711 0.262109 8.62211C1.14383 4.35703 4.785 0.872265 9.08316 0.171015C9.49137 0.103555 9.90258 0.0562891 10.3125 0ZM1.71875 10.9923C1.7123 16.1111 5.85449 20.2649 10.9815 20.2812C16.1086 20.2976 20.2744 16.1399 20.2812 11.0073C20.2877 5.88715 16.1464 1.73465 11.018 1.71875C5.88973 1.70285 1.72563 5.86008 1.71875 10.9923Z" fill="#D3D3D3"/>
<path d="M10.1325 15.2101V10.1716C9.86395 10.1716 9.60227 10.1772 9.34102 10.1716C8.84129 10.1587 8.47606 9.82014 8.45672 9.35866C8.43524 8.85979 8.78672 8.46834 9.28688 8.45631C9.84548 8.44557 10.4041 8.44901 10.9627 8.45373C11.5079 8.45846 11.8586 8.81295 11.859 9.35995C11.861 10.8922 11.861 12.4248 11.859 13.9576V15.211C12.1168 15.211 12.363 15.211 12.6105 15.211C13.1691 15.2131 13.5485 15.5668 13.5438 16.0811C13.5391 16.5821 13.1597 16.9289 12.6105 16.9293C11.5366 16.9293 10.4624 16.9293 9.38786 16.9293C8.82926 16.9293 8.44942 16.5731 8.45415 16.0601C8.45887 15.5586 8.83743 15.2131 9.38657 15.211C9.62977 15.2093 9.87212 15.2101 10.1325 15.2101Z" fill="#D3D3D3"/>
<path d="M11 4.24416C11.1413 4.2433 11.2814 4.27051 11.4121 4.32419C11.5428 4.37787 11.6616 4.45696 11.7615 4.55688C11.8614 4.65681 11.9405 4.77557 11.9942 4.90628C12.0479 5.037 12.0751 5.17707 12.0742 5.31838C12.0742 5.60328 11.9611 5.87651 11.7596 6.07797C11.5582 6.27942 11.2849 6.3926 11 6.3926C10.7151 6.3926 10.4419 6.27942 10.2404 6.07797C10.039 5.87651 9.9258 5.60328 9.9258 5.31838C9.92495 5.17707 9.95215 5.037 10.0058 4.90628C10.0595 4.77557 10.1386 4.65681 10.2385 4.55688C10.3384 4.45696 10.4572 4.37787 10.5879 4.32419C10.7186 4.27051 10.8587 4.2433 11 4.24416Z" fill="#D3D3D3"/>
</g>
<defs>
<clipPath id="clip0_335_30263">
<rect width="22" height="22" fill="white"/>
</clipPath>
</defs>
</svg>
