<svg width="17" height="16" viewBox="0 0 17 16" fill="none" xmlns="http://www.w3.org/2000/svg">
<path d="M14.4918 1.75H12.7309V0.875C12.7309 0.39375 12.3346 0 11.8504 0H4.80664C4.32238 0 3.92617 0.39375 3.92617 0.875V1.75H2.16523C1.19672 1.75 0.404297 2.5375 0.404297 3.5V4.375C0.404297 6.60625 2.0948 8.42625 4.26955 8.6975C4.82425 10.01 6.01288 10.9987 7.44804 11.2875V14H4.80664C4.32238 14 3.92617 14.3938 3.92617 14.875C3.92617 15.3562 4.32238 15.75 4.80664 15.75H11.8504C12.3346 15.75 12.7309 15.3562 12.7309 14.875C12.7309 14.3938 12.3346 14 11.8504 14H9.20898V11.2875C10.6441 10.9987 11.8328 10.01 12.3875 8.6975C14.5622 8.42625 16.2527 6.60625 16.2527 4.375V3.5C16.2527 2.5375 15.4603 1.75 14.4918 1.75ZM2.16523 4.375V3.5H3.92617V6.8425C2.90483 6.475 2.16523 5.5125 2.16523 4.375ZM14.4918 4.375C14.4918 5.5125 13.7522 6.475 12.7309 6.8425V3.5H14.4918V4.375Z" fill="#1D1D1F"/>
</svg>
