<svg width="17" height="16" viewBox="0 0 17 16" fill="none" xmlns="http://www.w3.org/2000/svg">
<path d="M15.0625 6.97869H9.0375V0.996956C9.0375 0.732547 8.9317 0.478967 8.74339 0.292002C8.55507 0.105036 8.29965 0 8.03333 0C7.76701 0 7.5116 0.105036 7.32328 0.292002C7.13496 0.478967 7.02917 0.732547 7.02917 0.996956V6.97869H1.00417C0.737845 6.97869 0.482432 7.08373 0.294114 7.27069C0.105796 7.45766 0 7.71124 0 7.97565C0 8.24006 0.105796 8.49364 0.294114 8.6806C0.482432 8.86757 0.737845 8.9726 1.00417 8.9726H7.02917V14.9543C7.02917 15.2187 7.13496 15.4723 7.32328 15.6593C7.5116 15.8463 7.76701 15.9513 8.03333 15.9513C8.29965 15.9513 8.55507 15.8463 8.74339 15.6593C8.9317 15.4723 9.0375 15.2187 9.0375 14.9543V8.9726H15.0625C15.3288 8.9726 15.5842 8.86757 15.7726 8.6806C15.9609 8.49364 16.0667 8.24006 16.0667 7.97565C16.0667 7.71124 15.9609 7.45766 15.7726 7.27069C15.5842 7.08373 15.3288 6.97869 15.0625 6.97869Z" fill="white"/>
</svg>
