<svg width="21" height="20" viewBox="0 0 21 20" fill="none" xmlns="http://www.w3.org/2000/svg">
<path d="M10.464 16.1654L10.7223 16.3216L15.7969 19.3908L15.7971 19.3909C16.3459 19.7231 17.0178 19.2342 16.8732 18.6115L10.464 16.1654ZM10.464 16.1654L10.2055 16.3211L5.13085 19.3781L5.12996 19.3787C4.581 19.7109 3.90903 19.2219 4.05388 18.599L5.39891 12.8276L5.46739 12.5338L5.23939 12.3363L0.751688 8.44773L0.751512 8.44758C0.265501 8.02685 0.529927 7.23431 1.16091 7.18412L1.16091 7.18413L1.16355 7.1839L7.06971 6.68255L7.36987 6.65707L7.48763 6.37981L9.79874 0.938318L9.79956 0.936375C10.0438 0.354542 10.8832 0.354541 11.1275 0.936376L11.1281 0.937944L13.4392 6.39166L13.5569 6.66928L13.8573 6.69478L19.7635 7.19614L19.7661 7.19635C20.3971 7.24654 20.6615 8.03908 20.1755 8.45981L20.1753 8.45996L15.6876 12.3485L15.4596 12.546L15.5281 12.8398L16.8731 18.6113L10.464 16.1654Z" stroke="#FAC300"/>
</svg>
