<svg width="21" height="20" viewBox="0 0 21 20" fill="none" xmlns="http://www.w3.org/2000/svg">
<path d="M10.4643 15.8734L10.8517 16.1076L15.9263 19.1769L15.9265 19.177C16.2852 19.3941 16.7244 19.0765 16.6297 18.6682L10.4643 15.8734ZM10.4643 15.8734L10.0765 16.107L5.00185 19.164L5.00051 19.1648C4.64174 19.3819 4.20239 19.0641 4.29738 18.6557L5.64239 12.8844L5.7451 12.4437L5.4031 12.1473L0.915401 8.25879L0.915137 8.25856C0.59576 7.98209 0.772295 7.46582 1.18073 7.43333L1.18073 7.43335L1.1847 7.43301L7.09086 6.93166L7.54109 6.89344L7.71774 6.47754L10.0288 1.03605L10.0301 1.03313C10.1885 0.655623 10.7385 0.655621 10.8969 1.03314L10.8979 1.03549L13.209 6.48921L13.3855 6.90563L13.8362 6.94389L19.7423 7.44525L19.7463 7.44556C20.1547 7.47805 20.3313 7.99431 20.0119 8.27079L20.0116 8.27102L15.5239 12.1595L15.1819 12.4559L15.2846 12.8966L16.6296 18.6679L10.4643 15.8734Z" stroke="#FAC300" stroke-width="1.5"/>
</svg>
