<svg width="28" height="28" viewBox="0 0 28 28" fill="none" xmlns="http://www.w3.org/2000/svg">
<path d="M2.12724 11.0904L2.12731 11.0902C2.35969 10.1357 2.91373 9.38132 3.62355 8.7254C4.63142 7.79455 5.82194 7.15854 7.08538 6.64767C8.70934 5.99123 10.4012 5.57727 12.135 5.33599L12.135 5.33599C12.4665 5.2897 12.7984 5.24678 13.1366 5.20303C13.249 5.1885 13.3621 5.17388 13.4761 5.15901L13.4761 18.6415C13.3225 18.6224 13.1699 18.6043 13.0179 18.5862C12.6695 18.5447 12.3246 18.5037 11.9807 18.4528C10.6038 18.2467 9.24957 17.9423 7.93279 17.4879C6.5137 16.9953 5.16612 16.3687 3.99504 15.4157C3.1855 14.7521 2.52084 13.9838 2.19823 12.9676L2.19822 12.9675C2.14995 12.8161 2.11512 12.661 2.07993 12.5043C2.06429 12.4346 2.04857 12.3646 2.03158 12.2945V11.5046C2.04063 11.465 2.04947 11.4254 2.05828 11.3859C2.08037 11.287 2.10232 11.1887 2.12724 11.0904Z" fill="#E6E6E6" stroke="#E6E6E6" stroke-width="0.0631549"/>
<path d="M19.7442 5.00429V5.03587C19.8059 5.03587 19.8667 5.03478 19.9272 5.0337C20.0232 5.03199 20.1182 5.03029 20.2144 5.03295L20.2145 5.03296C20.3319 5.03601 20.4073 5.06205 20.4537 5.10946C20.4999 5.15673 20.5235 5.23176 20.5219 5.34817C20.4975 6.35254 20.0555 7.16004 19.307 7.80927L19.307 7.80928C18.5732 8.44629 17.7014 8.76221 16.7403 8.85544L16.7402 8.85545L16.6247 8.86705L16.5963 8.8699V8.89847V9.12796V9.14405V9.16015V9.17624V9.19233V9.20843V9.22452V9.24061V9.2567V9.2728V9.28889V9.30498V9.32108V9.33717V9.35326V9.36936V9.38545V9.40154V9.41764V9.43373V9.44982V9.46591V9.48201V9.4981V9.51419V9.53029V9.54638V9.56247V9.57857V9.59466V9.61075V9.62685V9.64294V9.65903V9.67512V9.69122V9.70731V9.7234V9.7395V9.75559V9.77168V9.78778V9.80387V9.81996V9.83606V9.85215V9.86824V9.88434V9.90043V9.91652V9.93262V9.94871V9.9648V9.98089V9.99699V10.0131V10.0292V10.0453V10.0614V10.0775V10.0935V10.1096V10.1257V10.1418V10.1579V10.174V10.1901V10.2062V10.2223V10.2384V10.2545V10.2706V10.2867V10.3028V10.3189V10.3349V10.351V10.3671V10.3832V10.3993V10.4154V10.4315V10.4476V10.4637V10.4798V10.4959V10.512V10.5281V10.5442V10.5603V10.5763V10.5924V10.6085V10.6246V10.6407V10.6568V10.6729V10.689V10.7051V10.7212V10.7373V10.7534V10.7695V10.7856V10.8017V10.8177V10.8338V10.8499V10.866V10.8821V10.8982V10.9143V10.9304V10.9465V10.9626V10.9787V10.9948V11.0109V11.027V11.0431V11.0591V11.0752V11.0913V11.1074V11.1235V11.1396V11.1557V11.1718V11.1879V11.204V11.2201V11.2362V11.2523V11.2684V11.2845V11.3005V11.3166V11.3327V11.3488V11.3649V11.381V11.3971V11.4132V11.4293V11.4454V11.4615V11.4776V11.4937V11.5098V11.5259V11.542V11.558V11.5741V11.5902V11.6063V11.6224V11.6385V11.6546V11.6707V11.6868V11.7029V11.719V11.7351V11.7512V11.7673V11.7834V11.7994V11.8155V11.8316V11.8477V11.8638V11.8799V11.896V11.9121V11.9282V11.9443V11.9604V11.9765V11.9926V12.0087V12.0248V12.0409V12.0569V12.073V12.0891V12.1052V12.1213V12.1374V12.1535V12.1696V12.1857V12.2018V12.2179V12.234V12.2501V12.2662V12.2823V12.2984V12.3144V12.3305V12.3466V12.3627V12.3788V12.3949V12.411V12.4271V12.4432V12.4593V12.4754V12.4915V12.5076V12.5237V12.5398V12.5559V12.5719V12.588V12.6041V12.6202V12.6363V12.6524V12.6685V12.6846V12.7007V12.7168V12.7329V12.749V12.7651V12.7812V12.7973V12.8134V12.8294V12.8455V12.8616V12.8777V12.8938V12.9099V12.926V12.9421V12.9582V12.9743V12.9904V13.0065V13.0226V13.0387V13.0548V13.0709V13.0869V13.103V13.1191V13.1352V13.1513V13.1674V13.1835V13.1996V13.2157V13.2318V13.2479V13.264V13.2801V13.2962V13.3123V13.3284V13.3445V13.3605V13.3766V13.3927V13.4088V13.4249V13.441V13.4571V13.4732V13.4893V13.5054V13.5215V13.5376V13.5537V13.5698V13.5859V13.602V13.618V13.6341V13.6502V13.6663V13.6824V13.6985V13.7146V13.7307V13.7468V13.7629V13.779V13.7951V13.8112V13.8273V13.8434V13.8595V13.8756V13.8916V13.9077V13.9238V13.9399V13.956V13.9721V13.9882V14.0043V14.0204V14.0365V14.0526V14.0687V14.0848V14.1009V14.117V14.1331V14.1492V14.1652V14.1813V14.1974V14.2135V14.2296V14.2457V14.2618V14.2779V14.294V14.3101V14.3262V14.3423V14.3584V14.3745V14.3906V14.4067V14.4228V14.4389V14.4549V14.471V14.4871V14.5032V14.5193V14.5354V14.5515V14.5676V14.5837V14.5998V14.6159V14.632V14.6481V14.6642V14.6803V14.6964V14.7125V14.7285V14.7446V14.7607V14.7768V14.7929V14.809V14.8251V14.8412V14.8573V14.8734V14.8895V14.9056V14.9217V14.9378V14.9539V14.97V14.9861V15.0021V15.0182V15.0343V15.0504V15.0665V15.0826V15.0987V15.1148V15.1309V15.147V15.1631V15.1792V15.1953V15.2114V15.2275V15.2436V15.2597V15.2758V15.2918V15.3079V15.324V15.3401V15.3562V15.3723V15.3884V15.4045V15.4206V15.4367V15.4528V15.4689V15.485V15.5011V15.5172V15.5333V15.5494V15.5655V15.5815V15.5976V15.6137V15.6298V15.6459V15.662V15.6781V15.6942V15.7103V15.7264V15.7425V15.7586V15.7747V15.7908V15.8069V15.823V15.8391V15.8552V15.8712V15.8873V15.9034V15.9195V15.9356V15.9517V15.9678V15.9839V16V16.0161V16.0322V16.0483V16.0644V16.0805V16.0966V16.1127V16.1288V16.1449V16.161V16.177V16.1931V16.2092V16.2253V16.2414V16.2575V16.2736V16.2897V16.3058V16.3219V16.338V16.3541V16.3702V16.3863V16.4024V16.4185V16.4346V16.4507V16.4668V16.4828V16.4989V16.515V16.5311V16.5472V16.5633V16.5794V16.5955V16.6116V16.6277V16.6438V16.6599V16.676V16.6921V16.7082V16.7243V16.7404V16.7565V16.7725V16.7886V16.8047V16.8208V16.8369V16.853V16.8691V16.8852V16.9013V16.9174V16.9335V16.9496V16.9657V16.9818V16.9979V17.014V17.0301V17.0462V17.0623V17.0784V17.0944V17.1105V17.1266V17.1427V17.1588V17.1749V17.191V17.2071V17.2232V17.2393V17.2554V17.2715V17.2876V17.3037V17.3198V17.3359V17.352V17.3681C16.5963 17.6676 16.5368 17.9265 16.4104 18.1426C16.2842 18.3585 16.09 18.5338 15.8171 18.6644L15.8171 18.6643L15.8153 18.6653C15.7353 18.7101 15.6464 18.7368 15.5549 18.7434C15.2002 18.7388 14.8464 18.7268 14.4866 18.7146C14.3682 18.7106 14.2492 18.7066 14.1292 18.7028L14.1292 5.10967C14.2535 5.10327 14.377 5.09574 14.5 5.08824C14.7891 5.07061 15.0756 5.05315 15.3623 5.05084C16.3931 5.043 17.4242 5.04093 18.4552 5.03887C18.8849 5.03801 19.3146 5.03714 19.7443 5.03587L19.7442 5.00429ZM19.7442 5.00429C19.8046 5.00429 19.865 5.00322 19.9254 5.00214C20.022 5.00043 20.1187 4.99871 20.2153 5.00139C20.4569 5.00767 20.5569 5.10865 20.5535 5.34877L16.6279 9.12796V17.3681C16.6279 17.9754 16.3863 18.4271 15.8307 18.6929C15.7462 18.7401 15.6524 18.7682 15.5558 18.775C15.2003 18.7704 14.8456 18.7584 14.4853 18.7462C14.3569 18.7419 14.2278 18.7375 14.0977 18.7334L14.0977 5.07966C14.2313 5.07298 14.3643 5.06487 14.497 5.05678C14.7866 5.03913 15.0745 5.02159 15.3621 5.01927C16.393 5.01142 17.4242 5.00936 18.4553 5.00729C18.8849 5.00643 19.3146 5.00557 19.7442 5.00429Z" fill="#E6E6E6" stroke="#E6E6E6" stroke-width="0.0631549"/>
<path d="M9.01182 19.6544C8.77533 19.6515 8.5433 19.7189 8.34516 19.848C8.14696 19.9772 7.99161 20.1623 7.8988 20.3799C7.806 20.5976 7.77994 20.8378 7.82391 21.0703C7.86789 21.3027 7.97993 21.5169 8.14581 21.6856C8.31169 21.8542 8.52394 21.9698 8.75562 22.0177C8.98731 22.0655 9.22799 22.0435 9.44712 21.9543C9.66625 21.8652 9.85396 21.7129 9.98643 21.5169C10.1189 21.321 10.1901 21.0901 10.1912 20.8536C10.1936 20.6971 10.165 20.5417 10.1069 20.3964C10.0487 20.2511 9.96224 20.1188 9.85248 20.0071C9.74271 19.8955 9.61185 19.8069 9.46749 19.7463C9.3232 19.6858 9.1683 19.6545 9.01182 19.6544ZM9.01182 19.6544C9.01189 19.6544 9.01195 19.6544 9.01201 19.6544L9.01162 19.686L9.01164 19.6544C9.0117 19.6544 9.01176 19.6544 9.01182 19.6544ZM6.88006 17.5629C7.01217 17.6098 7.14266 17.6581 7.27234 17.7062C7.58437 17.8218 7.8917 17.9356 8.20552 18.0225L8.20553 18.0225C9.05987 18.2585 9.92088 18.4699 10.7812 18.6811C10.8142 18.6892 10.8472 18.6973 10.8802 18.7054L10.8802 18.7054C10.8957 18.7092 10.9103 18.7127 10.924 18.716C10.9707 18.7273 11.0067 18.7359 11.0355 18.745C11.0727 18.7567 11.0918 18.7674 11.1034 18.7801C11.1145 18.7923 11.1222 18.8101 11.1264 18.8448C11.1307 18.88 11.131 18.9275 11.131 18.9955V18.9991V19.0026V19.0062V19.0097V19.0132V19.0168V19.0203V19.0238V19.0274V19.0309V19.0344V19.038V19.0415V19.0451V19.0486V19.0521V19.0557V19.0592V19.0627V19.0663V19.0698V19.0733V19.0769V19.0804V19.084V19.0875V19.091V19.0946V19.0981V19.1016V19.1052V19.1087V19.1122V19.1158V19.1193V19.1229V19.1264V19.1299V19.1335V19.137V19.1405V19.1441V19.1476V19.1511V19.1547V19.1582V19.1618V19.1653V19.1688V19.1724V19.1759V19.1794V19.183V19.1865V19.1901V19.1936V19.1971V19.2007V19.2042V19.2077V19.2113V19.2148V19.2183V19.2219V19.2254V19.229V19.2325V19.236V19.2396V19.2431V19.2466V19.2502V19.2537V19.2573V19.2608V19.2643V19.2679V19.2714V19.2749V19.2785V19.282V19.2856V19.2891V19.2926V19.2962V19.2997V19.3032V19.3068V19.3103V19.3139V19.3174V19.3209V19.3245V19.328V19.3315V19.3351V19.3386V19.3421V19.3457V19.3492V19.3528V19.3563V19.3598V19.3634V19.3669V19.3704V19.374V19.3775V19.3811V19.3846V19.3881V19.3917V19.3952V19.3987V19.4023V19.4058V19.4094V19.4129V19.4164V19.42V19.4235V19.427V19.4306V19.4341V19.4377V19.4412V19.4447V19.4483V19.4518V19.4554V19.4589V19.4624V19.466V19.4695V19.473V19.4766V19.4801V19.4837V19.4872V19.4907V19.4943V19.4978V19.5013V19.5049V19.5084V19.512V19.5155V19.519V19.5226V19.5261V19.5296V19.5332V19.5367V19.5403V19.5438V19.5473V19.5509V19.5544V19.5579V19.5615V19.565V19.5686V19.5721V19.5756V19.5792V19.5827V19.5862V19.5898V19.5933V19.5969V19.6004V19.6039V19.6075V19.611V19.6145V19.6181V19.6216V19.6252V19.6287V19.6322V19.6358V19.6393V19.6428V19.6464V19.6499V19.6535V19.657V19.6605V19.6641V19.6676V19.6712V19.6747V19.6782V19.6818V19.6853V19.6888V19.6924V19.6959V19.6995V19.703V19.7065V19.7101V19.7136V19.7171V19.7207V19.7242V19.7278V19.7313V19.7348V19.7384V19.7419V19.7454V19.749V19.7525V19.7561V19.7596V19.7631V19.7667V19.7702V19.7737V19.7773V19.7808V19.7844V19.7879V19.7914V19.795V19.7985V19.802V19.8056V19.8091V19.8127V19.8162V19.8197V19.8233V19.8268V19.8303V19.8339V19.8374V19.841V19.8445V19.848V19.8516V19.8551V19.8586V19.8622V19.8657V19.8693V19.8728V19.8763V19.8799V19.8834V19.8869V19.8905V19.894V19.8976V19.9011V19.9046V19.9082V19.9117V19.9152V19.9188V19.9223V19.9259V19.9294V19.9329V19.9365V19.94V19.9435V19.9471V19.9506V19.9541V19.9577V19.9612V19.9648V19.9683V19.9718V19.9754V19.9789V19.9824V19.986V19.9895V19.9931V19.9966V20.0001V20.0037V20.0072V20.0107V20.0143V20.0178V20.0214V20.0249V20.0284V20.032V20.0355V20.039V20.0426V20.0461V20.0496V20.0532V20.0567V20.0603V20.0638V20.0673V20.0709V20.0744V20.0779V20.0815V20.085V20.0885V20.0921V20.0956V20.0992V20.1027V20.1062V20.1098V20.1133V20.1168V20.1204V20.1239V20.1274V20.131V20.1345V20.1381V20.1416V20.1451V20.1487V20.1522V20.1557V20.1593V20.1628V20.1663V20.1699V20.1734V20.177V20.1805V20.184V20.1876V20.1911V20.1946V20.1982V20.2017V20.2052V20.2088V20.2123V20.2158V20.2194V20.2229V20.2265V20.23V20.2335V20.2371V20.2406V20.2441V20.2477V20.2512V20.2547V20.2583V20.2618V20.2653V20.2689V20.2724V20.276V20.2795V20.283V20.2866V20.2901V20.2936V20.2972V20.3007V20.3042V20.3078V20.3113V20.3148V20.3184V20.3219V20.3254V20.329V20.3325V20.3361V20.3396V20.3431V20.3467V20.3502V20.3537V20.3573V20.3608V20.3643V20.3679V20.3714V20.3749V20.3785V20.382V20.3855V20.3891V20.3926V20.3961V20.3997V20.4032V20.4067V20.4103V20.4138V20.4173V20.4209V20.4244V20.4279V20.4315V20.435V20.4386V20.4421V20.4456V20.4492V20.4527V20.4562V20.4598V20.4633V20.4668V20.4704V20.4739V20.4774V20.481V20.4845V20.488V20.4916V20.4951V20.4986V20.5022V20.5057V20.5092V20.5128V20.5163V20.5198V20.5234V20.5269V20.5304V20.534V20.5375V20.541V20.5446V20.5481V20.5516V20.5552V20.5587V20.5622V20.5658V20.5693V20.5728V20.5764V20.5799V20.5834V20.587V20.5905V20.594V20.5976V20.6011V20.6046V20.6082V20.6117V20.6152V20.6187V20.6223V20.6258V20.6293V20.6329V20.6364V20.6399V20.6435V20.647V20.6505V20.6541V20.6576V20.6611V20.6647V20.6682V20.6717V20.6753V20.6788V20.6823V20.6859V20.6894V20.6929V20.6965V20.7V20.7035V20.707V20.7106V20.7141V20.7176V20.7212V20.7247V20.7282V20.7318V20.7353V20.7388V20.7424V20.7459V20.7494V20.7529V20.7565V20.76V20.7635V20.7671V20.7706V20.7741V20.7777V20.7812V20.7847V20.7883V20.7918V20.7953V20.7988V20.8024L11.131 20.8058C11.131 20.8058 11.131 20.8058 11.131 20.8059C11.1262 21.9102 10.3084 22.8561 9.28014 22.9564C8.0958 23.0684 7.12107 22.3519 6.90186 21.2047C6.88191 21.0877 6.87286 20.9691 6.87482 20.8504L6.87482 20.8498C6.87289 19.7821 6.87289 18.7141 6.87482 17.6457V17.6456C6.87482 17.6215 6.8768 17.5994 6.87931 17.5714C6.87955 17.5686 6.8798 17.5658 6.88006 17.5629Z" fill="#E6E6E6" stroke="#E6E6E6" stroke-width="0.0631549"/>
<path d="M17.0452 9.2766L18.0834 9.03047C18.101 9.11891 18.1193 9.20727 18.1376 9.29567C18.1859 9.52866 18.2342 9.76191 18.27 9.99754L18.2701 9.99774C18.4422 11.0806 18.4662 12.1819 18.3414 13.2712L18.3414 13.2712C18.2203 14.3328 18.0112 15.3724 17.4528 16.3024C17.371 16.4387 17.2718 16.5627 17.171 16.6886C17.1298 16.7401 17.0883 16.7919 17.0477 16.845L17.0452 16.8435V9.2766Z" fill="#E6E6E6" stroke="#E6E6E6" stroke-width="0.0631549"/>
<path d="M20.5537 9.77144L25.3261 6.58984" stroke="#E6E6E6" stroke-width="2.03825" stroke-linecap="round"/>
<path d="M20.5537 16.1348L25.3261 19.3164" stroke="#E6E6E6" stroke-width="2.03825" stroke-linecap="round"/>
<path d="M20.5537 12.9531H26.9169" stroke="#E6E6E6" stroke-width="2.03825" stroke-linecap="round"/>
</svg>
