<svg width="28" height="28" viewBox="0 0 28 28" fill="none" xmlns="http://www.w3.org/2000/svg">
<path d="M3.5 7.37699C3.52943 7.25306 3.55771 7.12913 3.5883 7.00558C3.92911 5.64429 5.17151 4.66795 6.57037 4.66718C11.1338 4.66563 15.6972 4.66563 20.2604 4.66718C21.9327 4.66718 23.3226 6.05132 23.325 7.71896C23.3288 10.275 23.3288 12.8311 23.325 15.3871C23.325 15.8635 23.0058 16.2031 22.5597 16.2059C22.1019 16.2086 21.7782 15.8701 21.7782 15.3844C21.7782 12.8738 21.7782 10.3631 21.7782 7.85218C21.7782 7.07065 21.3394 6.4661 20.6299 6.27711C20.474 6.2367 20.3137 6.2164 20.1527 6.21669C15.6603 6.21359 11.1678 6.21295 6.67532 6.21476C5.71332 6.21476 5.04874 6.88398 5.04874 7.84831C5.04719 12.3341 5.04719 16.8199 5.04874 21.306C5.04874 22.2804 5.71525 22.9449 6.6912 22.9457C9.28599 22.9457 11.8808 22.9523 14.4756 22.9407C14.9573 22.9384 15.261 23.2164 15.338 23.5603C15.4244 23.9449 15.2219 24.2768 14.7959 24.4673C14.7858 24.472 14.7792 24.4855 14.7711 24.4948H6.21214C6.18471 24.4798 6.15576 24.4677 6.12577 24.4588C4.82489 24.2145 3.98914 23.4519 3.60302 22.1909C3.56235 22.0573 3.53486 21.9198 3.50116 21.7839L3.5 7.37699Z" fill="#E6E6E6"/>
<path d="M22.3596 24.4949C22.1683 24.3477 21.9638 24.2149 21.7888 24.0507C21.4553 23.737 21.1358 23.4081 20.8163 23.0801C20.7327 22.9945 20.6715 22.9732 20.5549 23.0348C18.4535 24.1397 15.9428 22.9337 15.4815 20.6015C15.1016 18.6833 16.4691 16.7806 18.419 16.5141C20.6498 16.2094 22.573 18.0149 22.3914 20.2495C22.3433 20.8392 22.1447 21.4067 21.8147 21.8978C22.2369 22.3141 22.6621 22.7273 23.08 23.1475C23.4142 23.4841 23.4173 23.9825 23.085 24.2822C22.9882 24.3702 22.8612 24.4252 22.7477 24.4949H22.3596ZM18.9055 21.9001C19.9593 21.9059 20.8419 21.0279 20.8488 19.971C20.8558 18.9141 19.9778 18.0346 18.9198 18.028C17.8617 18.0214 16.9834 18.8998 16.9768 19.9567C16.9702 21.0136 17.8486 21.8943 18.9055 21.9001Z" fill="#E6E6E6"/>
<path d="M15.3309 10.5913C14.2279 10.5913 13.1248 10.5913 12.0215 10.5913C11.836 10.5934 11.6559 10.5285 11.5142 10.4086C11.3726 10.2887 11.279 10.1217 11.2505 9.93832C11.2208 9.74824 11.263 9.55393 11.3687 9.39321C11.4744 9.2325 11.6362 9.11688 11.8225 9.06887C11.8976 9.0511 11.9746 9.04316 12.0518 9.04525C14.2515 9.04525 16.4513 9.04525 18.651 9.04525C19.1212 9.04525 19.457 9.37289 19.4554 9.82368C19.4539 10.2745 19.1146 10.5917 18.6421 10.5921C17.5379 10.5915 16.4341 10.5913 15.3309 10.5913Z" fill="#E6E6E6"/>
<path d="M15.3404 15.2386H12.0695C11.5834 15.2386 11.2445 14.9164 11.2461 14.4594C11.2461 14.0125 11.5861 13.6914 12.0594 13.6914C14.254 13.6914 16.4474 13.6914 18.6397 13.6914C19.1141 13.6914 19.453 14.0125 19.453 14.4602C19.453 14.9168 19.1153 15.2382 18.6285 15.2386H15.3404Z" fill="#E6E6E6"/>
<path d="M12.56 20.1579C12.3733 20.1579 12.1862 20.161 11.9991 20.1579C11.7968 20.1552 11.6039 20.0724 11.4625 19.9277C11.3212 19.783 11.2431 19.5881 11.2452 19.3858C11.2434 19.2859 11.2613 19.1865 11.2979 19.0934C11.3344 19.0004 11.389 18.9154 11.4585 18.8435C11.5279 18.7715 11.6108 18.714 11.7025 18.6741C11.7942 18.6342 11.8929 18.6128 11.9929 18.6111C12.3733 18.6062 12.7537 18.6062 13.1341 18.6111C13.554 18.6173 13.8797 18.9632 13.8778 19.3901C13.8789 19.5889 13.8025 19.7803 13.6648 19.9236C13.5271 20.067 13.3389 20.151 13.1403 20.1579C12.947 20.161 12.7537 20.1579 12.56 20.1579Z" fill="#E6E6E6"/>
<path d="M8.52714 10.5927C8.39854 10.5927 8.26954 10.5927 8.13977 10.5927C8.03806 10.593 7.9373 10.573 7.84341 10.5339C7.74952 10.4948 7.66438 10.4373 7.59298 10.3649C7.52159 10.2925 7.46537 10.2065 7.42762 10.112C7.38988 10.0176 7.37136 9.91655 7.37317 9.81486C7.37196 9.71293 7.3912 9.61179 7.42975 9.51742C7.4683 9.42306 7.52537 9.33737 7.59759 9.26544C7.66982 9.1935 7.75573 9.13678 7.85025 9.09861C7.94477 9.06044 8.04598 9.0416 8.14791 9.04322C8.41248 9.04089 8.67667 9.03973 8.94085 9.04322C9.14294 9.04485 9.33612 9.12663 9.47796 9.27058C9.61981 9.41453 9.69873 9.60889 9.69739 9.81098C9.6995 9.9126 9.68133 10.0136 9.64394 10.1081C9.60656 10.2026 9.55071 10.2888 9.47966 10.3614C9.4086 10.4341 9.32377 10.4919 9.23013 10.5314C9.13649 10.5709 9.03591 10.5913 8.93427 10.5915C8.79792 10.5927 8.66272 10.5927 8.52714 10.5927Z" fill="#E6E6E6"/>
<path d="M8.53715 13.6895C8.66614 13.6895 8.79513 13.6895 8.92452 13.6895C9.02645 13.6884 9.12758 13.7076 9.22194 13.7462C9.31631 13.7848 9.40199 13.8418 9.47395 13.914C9.5459 13.9862 9.60267 14.0721 9.6409 14.1666C9.67913 14.2611 9.69805 14.3623 9.69655 14.4642C9.69794 14.5658 9.67907 14.6666 9.64104 14.7608C9.60301 14.855 9.54659 14.9407 9.47507 15.0128C9.40354 15.085 9.31836 15.1421 9.2245 15.1809C9.13063 15.2198 9.02997 15.2395 8.92839 15.239C8.66421 15.2421 8.40002 15.2421 8.13583 15.239C8.0339 15.2391 7.93299 15.2187 7.83904 15.1792C7.7451 15.1396 7.66003 15.0816 7.58886 15.0087C7.5177 14.9357 7.46187 14.8492 7.42468 14.7543C7.38749 14.6594 7.36969 14.558 7.37233 14.4561C7.3714 14.2538 7.4508 14.0595 7.5931 13.9157C7.73539 13.772 7.92892 13.6906 8.13118 13.6895C8.26637 13.6895 8.40195 13.6895 8.53715 13.6895Z" fill="#E6E6E6"/>
<path d="M8.54687 18.6094C8.67586 18.6094 8.80447 18.6094 8.93424 18.6094C9.03587 18.6095 9.13647 18.6298 9.23013 18.6693C9.3238 18.7087 9.40865 18.7665 9.47972 18.8391C9.55079 18.9118 9.60665 18.9979 9.64402 19.0924C9.68139 19.1869 9.69952 19.2879 9.69736 19.3895C9.69812 19.4898 9.67912 19.5893 9.64143 19.6823C9.60374 19.7752 9.54811 19.8598 9.47771 19.9313C9.40731 20.0027 9.32352 20.0596 9.23114 20.0986C9.13875 20.1377 9.03957 20.1581 8.93928 20.1589C8.66863 20.1627 8.39747 20.1627 8.1258 20.1589C7.92367 20.1561 7.7309 20.0733 7.58979 19.9285C7.44867 19.7838 7.37076 19.589 7.37314 19.3868C7.37002 19.1852 7.44687 18.9904 7.5869 18.8453C7.72692 18.7001 7.91872 18.6163 8.12038 18.6121C8.26409 18.6094 8.40509 18.6094 8.54687 18.6094Z" fill="#E6E6E6"/>
</svg>
