<svg width="32" height="32" viewBox="0 0 32 32" fill="none" xmlns="http://www.w3.org/2000/svg">
<path d="M16.0029 28.0558C12.7229 28.0558 12.3363 28.0385 11.0563 27.9825C10.0581 27.9497 9.07284 27.7467 8.14293 27.3825C6.53401 26.7563 5.26178 25.4836 4.63626 23.8745C4.286 22.9412 4.09709 21.9551 4.0776 20.9585C4.00293 19.6811 4.00293 19.2625 4.00293 16.0078C4.00293 12.7185 4.02026 12.3345 4.0776 11.0611C4.09751 10.0658 4.28642 9.08116 4.63626 8.14915C5.2611 6.53785 6.5354 5.26404 8.14693 4.63981C9.07845 4.28808 10.0634 4.09867 11.0589 4.07981C12.3323 4.00781 12.7509 4.00781 16.0029 4.00781C19.3096 4.00781 19.6896 4.02515 20.9496 4.07981C21.9477 4.09883 22.9353 4.28823 23.8696 4.63981C25.4807 5.26475 26.7547 6.53831 27.3803 8.14915C27.7364 9.09474 27.9263 10.0948 27.9416 11.1051C28.0163 12.3825 28.0163 12.7998 28.0163 16.0531C28.0163 19.3065 27.9976 19.7331 27.9416 20.9958C27.9217 21.9934 27.7324 22.9804 27.3816 23.9145C26.7545 25.5248 25.4803 26.7979 23.8696 27.4238C22.9366 27.7734 21.9511 27.9623 20.9549 27.9825C19.6816 28.0558 19.2643 28.0558 16.0029 28.0558ZM15.9576 6.11848C12.6963 6.11848 12.3576 6.13448 11.0843 6.19181C10.3242 6.20188 9.57157 6.34213 8.85893 6.60648C7.8066 7.00916 6.9739 7.83847 6.56693 8.88915C6.30055 9.60954 6.16027 10.3705 6.15226 11.1385C6.0816 12.4305 6.0816 12.7691 6.0816 16.0078C6.0816 19.2078 6.0936 19.5958 6.15226 20.8798C6.1642 21.6401 6.30439 22.3929 6.56693 23.1065C6.9745 24.1565 7.80705 24.9851 8.85893 25.3878C9.57108 25.6539 10.3241 25.7942 11.0843 25.8025C12.3749 25.8771 12.7149 25.8771 15.9576 25.8771C19.2283 25.8771 19.5669 25.8611 20.8296 25.8025C21.5901 25.7932 22.3434 25.653 23.0563 25.3878C24.1022 24.9817 24.9295 24.1549 25.3363 23.1091C25.6021 22.3881 25.7424 21.6269 25.7509 20.8585H25.7656C25.8229 19.5838 25.8229 19.2438 25.8229 15.9865C25.8229 12.7291 25.8083 12.3865 25.7509 11.1131C25.739 10.3537 25.5988 9.60183 25.3363 8.88915C24.9304 7.84191 24.103 7.01354 23.0563 6.60648C22.3435 6.3408 21.5902 6.20051 20.8296 6.19181C19.5403 6.11848 19.2029 6.11848 15.9576 6.11848ZM16.0029 22.1665C13.5096 22.1681 11.2608 20.6675 10.3054 18.3644C9.35 16.0614 9.87614 13.4096 11.6384 11.6458C13.4007 9.88194 16.0521 9.35351 18.3559 10.3069C20.6598 11.2603 22.1624 13.5078 22.1629 16.0011C22.1593 19.4026 19.4043 22.1599 16.0029 22.1665ZM16.0029 11.9985C13.7938 11.9985 12.0029 13.7893 12.0029 15.9985C12.0029 18.2076 13.7938 19.9985 16.0029 19.9985C18.2121 19.9985 20.0029 18.2076 20.0029 15.9985C19.9978 13.7915 18.2099 12.0036 16.0029 11.9985ZM22.4029 11.0478C21.6102 11.0449 20.9695 10.4006 20.9709 9.60782C20.9724 8.81505 21.6155 8.17316 22.4083 8.17316C23.201 8.17316 23.8441 8.81504 23.8456 9.60781C23.846 9.9903 23.694 10.3572 23.4233 10.6274C23.1526 10.8976 22.7854 11.0489 22.4029 11.0478Z" fill="#1D1D1F"/>
</svg>
