<svg width="32" height="32" viewBox="0 0 32 32" fill="none" xmlns="http://www.w3.org/2000/svg">
<path d="M16.0083 25.3506H15.9817C15.899 25.3506 7.62833 25.3346 5.54166 24.768C4.39423 24.4589 3.49813 23.5623 3.18966 22.4146C2.81444 20.2978 2.63324 18.1511 2.64833 16.0013C2.63864 13.848 2.82474 11.6983 3.20433 9.57864C3.52127 8.42998 4.41344 7.52923 5.559 7.2013C7.58833 6.66797 15.631 6.66797 15.9723 6.66797H16.0003C16.0843 6.66797 24.3763 6.68397 26.4417 7.25064C27.5867 7.56131 28.481 8.4561 28.791 9.6013C29.1782 11.726 29.3599 13.8831 29.3337 16.0426C29.343 18.1933 29.1565 20.3404 28.7763 22.4573C28.4639 23.6035 27.5672 24.4981 26.4203 24.808C24.3937 25.3453 16.3497 25.3506 16.0083 25.3506ZM13.3417 12.008L13.335 20.008L20.2843 16.008L13.3417 12.008Z" fill="#1D1D1F"/>
</svg>
