<svg width="32" height="32" viewBox="0 0 32 32" fill="none" xmlns="http://www.w3.org/2000/svg">
<path d="M2.66895 16.0034C2.6705 22.5626 7.44015 28.1474 13.9183 29.1754V19.8567H10.5356V16.0034H13.9223V13.07C13.7709 11.6801 14.2456 10.2948 15.2178 9.28995C16.19 8.28507 17.5587 7.76473 18.9529 7.87004C19.9537 7.8862 20.9519 7.97533 21.9396 8.13671V11.4154H20.2543C19.6741 11.3394 19.0908 11.531 18.6686 11.9363C18.2465 12.3415 18.0313 12.9166 18.0836 13.4994V16.0034H21.7783L21.1876 19.858H18.0836V29.1754C25.0896 28.0682 30.0024 21.6697 29.263 14.6155C28.5235 7.5612 22.3907 2.32062 15.3074 2.69028C8.22409 3.05995 2.67007 8.91045 2.66895 16.0034Z" fill="#1D1D1F"/>
</svg>
